<svg height="38.244" viewBox="0 0 38.244 38.244" width="38.244" xmlns="http://www.w3.org/2000/svg"><path d="m19.122 0a19.122 19.122 0 1 0 19.122 19.122 19.122 19.122 0 0 0 -19.122-19.122zm16.878 18.664-3.674 3.674-3.692-3.692a9.517 9.517 0 0 0 -7.114-8.735l3.2-3.2a1.12 1.12 0 0 0 0-1.584l-2.635-2.627a16.882 16.882 0 0 1 13.915 16.164zm-9.6.458a7.28 7.28 0 1 1 -7.28-7.28 7.28 7.28 0 0 1 7.28 7.28zm-7.736-16.875 3.674 3.674-3.692 3.692a9.516 9.516 0 0 0 -8.734 7.114l-3.2-3.2a1.12 1.12 0 0 0 -1.584 0l-2.628 2.632a16.882 16.882 0 0 1 16.164-13.912zm-16.417 17.333 3.674-3.674 3.692 3.694a9.541 9.541 0 0 0 7.11 8.739l-3.194 3.191a1.12 1.12 0 0 0 0 1.584l2.63 2.63a16.882 16.882 0 0 1 -13.912-16.164zm17.333 16.42-3.674-3.674 3.694-3.695a9.541 9.541 0 0 0 8.739-7.11l3.194 3.194a1.12 1.12 0 0 0 1.584 0l2.63-2.63a16.882 16.882 0 0 1 -16.167 13.915z" fill="#E65100"/></svg>