<svg height="21.03" viewBox="0 0 21.03 21.03" width="21.03" xmlns="http://www.w3.org/2000/svg"><path d="m10.515 0a10.515 10.515 0 1 0 10.515 10.515 10.515 10.515 0 0 0 -10.515-10.515zm9.279 10.263-2.02 2.02-2.03-2.03a5.233 5.233 0 0 0 -3.912-4.8l1.758-1.762a.616.616 0 0 0 0-.871l-1.446-1.446a9.283 9.283 0 0 1 7.65 8.889zm-5.276.252a4 4 0 1 1 -4-4 4 4 0 0 1 4 4zm-4.255-9.279 2.02 2.02-2.03 2.03a5.233 5.233 0 0 0 -4.803 3.914l-1.758-1.76a.616.616 0 0 0 -.871 0l-1.447 1.446a9.283 9.283 0 0 1 8.889-7.65zm-9.027 9.531 2.02-2.02 2.03 2.03a5.247 5.247 0 0 0 3.914 4.805l-1.76 1.756a.616.616 0 0 0 0 .871l1.446 1.446a9.283 9.283 0 0 1 -7.65-8.888zm9.531 9.027-2.02-2.02 2.03-2.03a5.247 5.247 0 0 0 4.806-3.91l1.756 1.756a.616.616 0 0 0 .871 0l1.446-1.446a9.283 9.283 0 0 1 -8.889 7.65z" fill="#fff"/></svg>