<svg height="66.115" viewBox="0 0 43.89 66.115" width="43.89" xmlns="http://www.w3.org/2000/svg"><g fill="#fff" transform="translate(-335.904 -558.326)"><path d="m374.365 578.356c1.79.147 3.6.341 5.429.619l-2.2-6.692a100.537 100.537 0 0 1 -17.483 1.039 167.06 167.06 0 0 1 -18.167-1.039l2.2 6.692c2.343-.3 4.72-.507 7.111-.663v.011a5.266 5.266 0 0 1 .084 1.325 5.324 5.324 0 0 1 -.924 2.633 7.983 7.983 0 0 1 -1.028 1.252c-.474.459-.965.93-1.539 1.424l-3.479 3.054a31.824 31.824 0 0 0 -6.545 7.67 12.151 12.151 0 0 0 -1.148 2.51 11.017 11.017 0 0 0 -.668 2.786 11.811 11.811 0 0 0 -.008 2.911 18.724 18.724 0 0 0 .684 2.776c.345.857.8 1.641 1.216 2.449a22.629 22.629 0 0 0 1.54 2.107 11.1 11.1 0 0 0 1.871 1.915c.346.3.669.616 1.037.883l1.208.677a14.648 14.648 0 0 0 10.23 1.106 32.262 32.262 0 0 0 8.923-3.6 53.942 53.942 0 0 0 4.922-3.243v2.2c-.052 3.948-.08 7.095-.288 11.043 2.408.526 3.047 1.223 4.9 2.235-.208-3.948-.317-9.33-.368-13.278l.009-11.845c.134-6.446.265-12.892.626-19.338a1.727 1.727 0 0 1 1.855-1.619zm-21.194 34.008a10.813 10.813 0 0 1 -7.514-1.277l-.766-.489c-.232-.2-.428-.452-.645-.67a7.02 7.02 0 0 1 -1.216-1.451 18.287 18.287 0 0 1 -1.047-1.67c-.22-.581-.513-1.142-.7-1.71-1.424-4.546 2.508-8.814 7.1-12.324l3.632-2.738c.622-.459 1.282-.994 1.948-1.553a14.945 14.945 0 0 0 2.044-2.139 12.474 12.474 0 0 0 2.526-5.755 12.863 12.863 0 0 0 .108-2.594c.995-.022 1.989-.047 2.987-.058q2.059-.018 4.134.012a1.213 1.213 0 0 1 1.188 1.133c.4 6.746.537 13.491.678 20.237v3.709a5.616 5.616 0 0 1 -2.76 4.855 33.774 33.774 0 0 1 -11.697 4.482z"/><circle cx="359.634" cy="562.733" r="4.407"/></g></svg>