<svg height="68.284" viewBox="0 0 58.965 68.284" width="58.965" xmlns="http://www.w3.org/2000/svg"><g fill="#272727" transform="translate(-657.145 -557.242)"><path d="m672.917 560.323a3.081 3.081 0 1 1 3.083 3.077 3.082 3.082 0 0 1 -3.083-3.077z"/><path d="m657.145 559.833a90.573 90.573 0 0 0 9.825 5.447 24.412 24.412 0 0 0 9.938 2.218 25.582 25.582 0 0 0 9.946-2.478 101.984 101.984 0 0 0 9.834-5.493 27.619 27.619 0 0 1 -7.993 8.7 21.4 21.4 0 0 1 -11.7 4.048 20.531 20.531 0 0 1 -11.853-3.714 25.979 25.979 0 0 1 -7.997-8.728z"/><path d="m715.575 592.682a8.4 8.4 0 0 0 -2.6-3.93 7.918 7.918 0 0 0 -4.292-1.738 12.245 12.245 0 0 0 -4.236.277 20.1 20.1 0 0 0 -7.22 3.364c-3.342 2.524-7.669 5.3-11.222 5.3-.19 0-.33-.191-.5-.28a19.046 19.046 0 0 0 2.328-1.57 10.889 10.889 0 0 0 3.855-5.57 10.123 10.123 0 0 0 -.995-7.214 15.281 15.281 0 0 0 -4.422-5.27c-3.925-2.949-9.16-3.493-13.647-2.415a19.443 19.443 0 0 0 -6.536 2.884 16.409 16.409 0 0 0 -2.916 2.585c-2.08 2.38-1.857 6.25.8 7.962 1.759 1.133 5.281 1.131 6.652-.712.432-.581.491-1.583 1.327-2.416a10.379 10.379 0 0 1 3.171-2.143 8.3 8.3 0 0 1 10.622 2.493 4.912 4.912 0 0 1 1.19 3.292c-.085 2.355-2.517 5.8-5.6 6.748l-3.518 1.186a30.4 30.4 0 0 1 3.4 1.514c4.629 3.017 7.765 8.461 7.132 12.369a11.479 11.479 0 0 1 -2.988 5.926 11.745 11.745 0 0 1 -5.638 3.95 9.373 9.373 0 0 1 -6.659-.552 15.779 15.779 0 0 1 -5.844-4.938c-3.329-4.36-5.122-10.083-6.22-15.961a30.918 30.918 0 0 0 2.8 18.115 19.365 19.365 0 0 0 6.76 7.4 14.626 14.626 0 0 0 10.6 1.871 17.892 17.892 0 0 0 9.172-5.476c2.22-2.5 4.382-5.822 4.54-9.876a13.765 13.765 0 0 0 -4.014-10.143c-.721-.764-2.151-1.643-2.277-2.05-.138-.446 7.137-2.565 10.258-4.651a17.1 17.1 0 0 1 6.248-2.539c2.128-.376 4.349-.126 5.539 1.054a4.672 4.672 0 0 1 1.278 2.239 8.377 8.377 0 0 1 .163 2.924 4.814 4.814 0 0 1 -2.918 4.019c-1.555.744-3.806.449-4.318-.3a1.148 1.148 0 0 1 -.08-.779c.126-.474 1.085-1.154 1.52-1.729 2.1-2.777-.272-5.42-3.166-4.128-1.581.706-2.262 2.183-3.013 4.025a5.37 5.37 0 0 0 1.334 6.01 7.4 7.4 0 0 0 4.961 1.92 9.837 9.837 0 0 0 4.651-1.027 9.1 9.1 0 0 0 5.039-7.625 12.205 12.205 0 0 0 -.501-4.395z"/></g></svg>