<svg height="178.438" viewBox="0 0 164.61 178.438" width="164.61" xmlns="http://www.w3.org/2000/svg"><path d="m-75.038-15.525a7.658 7.658 0 0 0 -4.05 3.915 12.347 12.347 0 0 0 -1.125 5.04 10.216 10.216 0 0 0 9.225 10.3c.5.045.945.09 1.44.09 7.47 0 13-6.8 13.14-13.275.135-5.94-1.665-8.415-5.265-12.69-3.645-4.32-9.36-8.415-9.45-14.085l-.45-.135a9.282 9.282 0 0 0 -1.53 5.49 11.591 11.591 0 0 0 .855 4.365c2.61 6.39 13.14 11.385 13.14 18.27-.4 4.725-5.175 7.11-9.36 7.38l.81-.81v-15.93l-3.915-4.725v21.245c-3.78-.72-6.3-3.15-6.3-7.02a10.239 10.239 0 0 1 .36-2.745 9.521 9.521 0 0 1 2.835-4.275zm24.8-5.4-4.05 2.7v9.81c0 4.185 1.125 7.065 4.05 8.415l5.265-4.455-.765-1.08-2.3 1.755c-1.665.135-2.2-2.07-2.2-5.13zm-4.41-4.32 2.565 2.565 7.655-6.565-2.655-2.61zm18.27.63c-.315 4.77-11.07 6.075-11.07 14.85v2.025c0 4.185 2.25 6.75 4.41 7.74l4.05-3.69a6.568 6.568 0 0 0 3.415 3.69l5.265-4.455-.72-1.08-2.3 1.755c-1.62.135-2.16-1.8-2.25-4.635v-8.505h-2.16a6.635 6.635 0 0 0 1.755-1.98 7.647 7.647 0 0 0 .72-3.33 4.232 4.232 0 0 0 -.63-2.52zm-3.375 16.2a16.623 16.623 0 0 0 .27 3.105l-1.62 1.26c-1.4-.045-2.07-1.395-2.205-3.69v-2.16c0-2.7 1.755-4.23 3.555-5.535zm18.13-12.915c-1.89 2.655-9.5 3.1-10.665 3.33l-.675 4.5c1.71 1.755 6.84 6.435 7.515 8.505.4 1.26 0 2.115-.9 2.115a2.855 2.855 0 0 1 -1.62-.63 5.122 5.122 0 0 1 -2.07-2.835l-3.33 2.7c1.168 2.385 3.105 3.87 4.86 4.045 2.25-.045 5.49-2.475 6.435-5.445.585-3.51-4.86-8.055-6.435-9.54 2.3-.18 5.49-.855 6.75-3.285a8.193 8.193 0 0 0 .54-3.33zm-6.077-5.13-2.61 2.655 2.61 2.565 2.565-2.565zm23.447 26.46 5.353-4.455-.763-1.08-2.3 1.755c-1.66.135-2.337-2.07-2.337-5.13v-24.345l-4.005 2.7v11.7l-2.52-2.07c-3.51 1.215-4.905 3.6-4.905 9.135v3.375c0 4.185 1.215 7.065 4.1 8.415l4.185-3.555a6.229 6.229 0 0 0 3.192 3.555zm-3.69-5.175-1.44 1.125c-1.755-.135-2.25-1.8-2.25-4.86v-3.24c0-2.7.765-4.77 2.52-5.04l.81.5v8.28a13.012 13.012 0 0 0 .36 3.235zm-6.48-20.07 2.565 2.565 2.61-2.565-2.61-2.61zm25.47 20.655-2.747 1.98c-.81-.27-5.085-.63-5.085-4.275v-.72l3.6.18c2.88-1.395 3.645-4.455 3.555-7.02a6.7 6.7 0 0 0 -4.86-6.525l-6.39 5.715v8.46c.002 5.535 4.862 6.795 7.967 7.425l4.725-4.32zm-7.83-4.59v-7.6l.4-.36a4.286 4.286 0 0 1 2.52 3.6c.18 2.2-.675 4.23-2.25 4.365zm-2.745-16.065 2.565 2.565 2.655-2.565-2.655-2.61zm5.265 0 2.563 2.565 2.655-2.565-2.655-2.61zm6.93-5.31v22.14c0 4.185 1.125 7.065 4.05 8.415l5.31-4.455-.72-1.08-2.3 1.755c-1.71.135-2.385-2.07-2.385-5.13v-24.345zm22.86 5.94c-.315 4.77-11.07 6.075-11.07 14.85v2.025c0 4.185 2.25 6.75 4.41 7.74l4.05-3.69a6.568 6.568 0 0 0 3.42 3.69l5.263-4.455-.72-1.08-2.3 1.755c-1.62.135-2.16-1.8-2.25-4.635v-8.505h-2.16a6.635 6.635 0 0 0 1.755-1.98 7.647 7.647 0 0 0 .72-3.33 4.232 4.232 0 0 0 -.63-2.52zm-3.375 16.2a16.623 16.623 0 0 0 .27 3.105l-1.622 1.26c-1.4-.045-2.07-1.395-2.2-3.69v-2.16c0-2.7 1.755-4.23 3.555-5.535zm7.425-22.14v22.14c0 4.185 1.123 7.065 4.05 8.415l5.31-4.455-.72-1.08-2.3 1.755c-1.71.135-2.385-2.07-2.385-5.13v-24.345zm7.423 15.3v15.255h4.1v-16.785l.405-.36c2.25.9 2.835 3.375 2.835 6.345v7.155l4.05 3.33v-10.8a19.029 19.029 0 0 0 -.63-5.13l1.035-.9c2.25.9 2.835 3.375 2.835 6.345v12.375l4.05 3.285v-15.975c0-5.4-1.485-8.73-4.995-9.855l-3.555 3.195a6.251 6.251 0 0 0 -3.735-3.195zm31.32-9.36c-.315 4.77-11.07 6.075-11.07 14.85v2.025c0 4.185 2.25 6.75 4.41 7.74l4.05-3.69a6.568 6.568 0 0 0 3.423 3.69l5.267-4.455-.72-1.08-2.3 1.755c-1.62.135-2.16-1.8-2.25-4.635v-8.505h-2.16a6.635 6.635 0 0 0 1.755-1.98 7.647 7.647 0 0 0 .72-3.33 4.232 4.232 0 0 0 -.63-2.52zm-3.375 16.2a16.623 16.623 0 0 0 .27 3.105l-1.615 1.26c-1.395-.045-2.07-1.395-2.205-3.69v-2.16c0-2.7 1.755-4.23 3.555-5.535z" fill="#209393" transform="translate(80.212 173.578)"/><path d="m210.674 201.091a3.428 3.428 0 0 0 -2.378.377 19.473 19.473 0 0 1 -2.966.817c-.607.119-1.218.2-1.83.277a.13.13 0 0 0 .061-.082q.292-1.114.544-2.236a6.068 6.068 0 0 0 .238-2.132 4.993 4.993 0 0 0 -.71-1.768c-.388-.674-.8-1.336-1.226-1.985-.215-.327-.434-.652-.659-.971a3.641 3.641 0 0 0 -.228-.306.115.115 0 0 0 .054-.152 1.023 1.023 0 0 0 -1.387-.463 4.529 4.529 0 0 0 -1.545 1.525 16.717 16.717 0 0 1 -3.118 3.5.156.156 0 0 0 -.04.044c-1.938.062-3.213 1.674-4.692 2.727-.147.1-.3.2-.45.3a.137.137 0 0 0 -.049-.038 20.928 20.928 0 0 1 -7.2-6.373c-.995-1.271-1.937-2.583-2.931-3.854a54.856 54.856 0 0 0 -3.706-4.221c-1.116-1.159-2.275-2.276-3.448-3.379a.146.146 0 0 0 .013-.146c-1.379-3.046-1.546-6.489-1.586-9.783q-.065-5.41-.213-10.816c-.062-2.148-.113-5.175-.12-7.324-.28-2.437-1.276-5.049-3.514-6.321a9.438 9.438 0 0 0 -4.277-.929 12.033 12.033 0 0 1 -4.964-.985 21.619 21.619 0 0 1 -4.382-3.412l-.186-.3a9.289 9.289 0 0 1 -1.344-2.976 13.379 13.379 0 0 1 -.165-3.333 16.214 16.214 0 0 0 1.867-2.39 13.609 13.609 0 0 0 1.788-4.262.137.137 0 0 0 .113-.038 12.681 12.681 0 0 0 1.688-1.885 6.645 6.645 0 0 0 1.188-2.224 1.764 1.764 0 0 0 -.479-1.822 1.424 1.424 0 0 0 -1.307-.331 50.083 50.083 0 0 0 1.578-4.771 8.471 8.471 0 0 0 .2-3.792 7.246 7.246 0 0 0 -1.041-2.5c-.021-.071-.037-.141-.06-.211a.372.372 0 0 0 -.271-.258 7.883 7.883 0 0 0 -2.392-2.085 3.5 3.5 0 0 0 .218-1.4 6.249 6.249 0 0 0 -.337-3.813 3.625 3.625 0 0 0 -.832-1.253 6.066 6.066 0 0 0 -1.163-.807 6.775 6.775 0 0 0 -3.042-1.451c-.212-.07-.426-.136-.643-.191a7.441 7.441 0 0 0 -2.879-.174 7.887 7.887 0 0 0 -4.409 1.088 4.8 4.8 0 0 0 -1.29 1.244 6.131 6.131 0 0 0 -1.013 1.05 3.906 3.906 0 0 0 .06 4.943l.016.028a8.538 8.538 0 0 0 -3.758 3.65 9.386 9.386 0 0 0 -.722 6.681 12.232 12.232 0 0 0 1.335 3.245v.25a.962.962 0 0 0 .071.361 1.064 1.064 0 0 0 -.832.176c-.692.551-.588 1.667-.428 2.435a5.724 5.724 0 0 0 2.344 3.478 15.055 15.055 0 0 0 2.379 5.371c.184.263.381.528.584.791a11.993 11.993 0 0 1 .129 3.946 8.2 8.2 0 0 1 -2.046 3.51.14.14 0 0 0 -.019.033 17.466 17.466 0 0 1 -3.355 3.44 5.794 5.794 0 0 1 -2.526.964c-1.077.136-2.164-.027-3.245.057a8.465 8.465 0 0 0 -6.986 5.831 25.49 25.49 0 0 0 -.732 7.854.139.139 0 0 0 -.007.048q.252 4.078.217 8.167a67.59 67.59 0 0 1 -.4 7.962 14.273 14.273 0 0 1 -2.353 6.282 51.107 51.107 0 0 1 -3.917 4.8 25.723 25.723 0 0 0 -3.91 5.492c-1.035 1.131-2.527 2.763-3.635 3.8q-.861.807-1.754 1.58a7.226 7.226 0 0 1 -2 1.486c-1.547.568-2.932-.718-4.005-1.635a10.836 10.836 0 0 0 -3.427-2c-.436-.756-.86-1.519-1.311-2.266a5.786 5.786 0 0 0 -1.46-1.73 2.687 2.687 0 0 0 -1.905-.594c-.671.116-.609.894-.451 1.452-.1.24-.139.508-.215.755a6.4 6.4 0 0 1 -.416.993 10.053 10.053 0 0 0 -1.376 3.169 6.527 6.527 0 0 0 .244 2.107q.233 1.137.467 2.274a6.329 6.329 0 0 0 -3.111-.27.126.126 0 0 0 -.053-.184 32.123 32.123 0 0 0 -3.105-1.37q-.817-.309-1.65-.573a3.1 3.1 0 0 0 -1.417-.248.914.914 0 0 0 -.766.658.786.786 0 0 0 .454.8 15.369 15.369 0 0 0 1.408.646q.757.36 1.489.769a25.181 25.181 0 0 1 2.981 1.958c-.589.043-1.178.129-1.737.2a2.847 2.847 0 0 0 -1.361.436c-.276.2-.541.565-.312.9.243.353.9.429 1.28.506a14.459 14.459 0 0 0 1.761.226c1.472.118 2.946.22 4.42.327.027.17.157.288.4.3a14.59 14.59 0 0 0 2.211-.121c.482-.044.962-.1 1.441-.171a7.29 7.29 0 0 0 -3.633 9.442 9.813 9.813 0 0 0 3.95 4.467 15.292 15.292 0 0 0 3.3 1.428 24.366 24.366 0 0 0 3.878 1.048 36.642 36.642 0 0 0 4.44.21c1.563.041 3.711-.06 5.291-.023a.127.127 0 0 0 .025.005 59.6 59.6 0 0 0 14.606-2.078 70.3 70.3 0 0 0 7.163-1.944c1.165-.417 2.315-.864 3.469-1.3a.146.146 0 0 0 .113.077l22.113 2.596 22.228 2.607a97.245 97.245 0 0 0 12.467 1.031.108.108 0 0 0 .013 0 .133.133 0 0 0 .075 0 17.723 17.723 0 0 0 4.127-2.257c1.224-.846 2.471-1.667 3.653-2.571a6.014 6.014 0 0 0 2.37-2.655 7.7 7.7 0 0 0 .233-1.965c.035-.809-.052-2.543-.081-3.353a.17.17 0 0 0 -.007-.03.167.167 0 0 0 0-.02 5.6 5.6 0 0 0 -1.9-3.073 26.94 26.94 0 0 0 -2.643-2.024 12.454 12.454 0 0 1 3.142-.192c.513.048 1.023.122 1.537.147.316.015.862.1 1.122-.132.512-.458-.395-1.238-.744-1.46a4.011 4.011 0 0 0 -1.142-.472 37.159 37.159 0 0 0 5.5-2.144q.719-.349 1.422-.731c.2-.108.489-.211.6-.423.265-.517-.343-1.036-.753-1.192zm-116.026-1.123a5.207 5.207 0 0 0 -.24.884 10.933 10.933 0 0 0 -.136 1.385 4.19 4.19 0 0 1 -1.753-2.511 4 4 0 0 1 .7-3.2l.894 1.158c.324.42.8.907.77 1.479a2.782 2.782 0 0 1 -.235.805zm40.363-13.168a11.91 11.91 0 0 1 -2.53 5.469 11.844 11.844 0 0 0 -2.313 5.023 13.482 13.482 0 0 1 -.788 3.6 15.245 15.245 0 0 1 -2.037 3.07 4.644 4.644 0 0 0 -2.973-.493 5.683 5.683 0 0 0 -.668.144 1.031 1.031 0 0 0 -.451.2.434.434 0 0 0 -.033.049 27.216 27.216 0 0 0 -6.42.268c-2.287.2-5.192.633-7.479.83-.226 0-.451 0-.676.006 3.525-3.883 8.08-6.573 12.247-9.685a36.426 36.426 0 0 0 5.568-4.941 13.494 13.494 0 0 0 2.306-3.253 9.93 9.93 0 0 0 .588-4.1 17.2 17.2 0 0 1 .77-5 19.87 19.87 0 0 0 1.021-4.558.135.135 0 0 0 .061-.08 8.112 8.112 0 0 0 .227-1.048q.17.867.34 1.733a.122.122 0 0 0 .063.09c1.047 4.202 3.666 8.205 3.177 12.676zm47.635 16.995q-2.233-.141-4.472-.137a18.363 18.363 0 0 1 -4.5-.353 1.044 1.044 0 0 0 -.061-.5 2.76 2.76 0 0 0 -1.451-1.588 5.21 5.21 0 0 0 -2.572-.166c-1.125.016-2.134-.6-3.23-.76a4.206 4.206 0 0 0 -.613-.041c-.028-3.528-2.477-6.272-4.127-9.2-.517-.917-1-1.855-1.466-2.8a6.091 6.091 0 0 1 -.933-3.243 16.257 16.257 0 0 1 .784-3.2l.908-3.121a16.278 16.278 0 0 0 .971-6.425c.085-.133.166-.267.242-.405a24.561 24.561 0 0 1 1.415 5.107c.3 1.892.248 3.8.439 5.7a15.284 15.284 0 0 0 3.142 7.791 16.181 16.181 0 0 0 3.547 3.363c.276.2 1.971 1.359 2.247 1.559h.012q2.913 2.293 5.982 4.374 1.569 1.061 3.177 2.064a19.96 19.96 0 0 1 3.115 2.184c-.854-.076-1.702-.15-2.556-.204zm18.518-4.072a5.393 5.393 0 0 1 -1.348 1.933 14.723 14.723 0 0 1 -1.613-1.845.134.134 0 0 0 .055-.075 9.7 9.7 0 0 1 2.321-3.754c.139.4.282.8.417 1.2a3.668 3.668 0 0 1 .168 2.54z" fill="#209393" transform="translate(-68.852 -100.64)"/><g fill="#fff"><circle cx="77.999" cy="8.578" r="3"/><circle cx="77.999" cy="25.578" r="3"/><circle cx="77.999" cy="43.578" r="3"/><circle cx="77.999" cy="60.578" r="3"/><ellipse cx="77.999" cy="79.078" rx="3" ry="3.5"/><circle cx="77.999" cy="96.578" r="3"/><circle cx="77.999" cy="114.578" r="3"/></g></svg>