<svg height="68.905" viewBox="0 0 63.253 68.905" width="63.253" xmlns="http://www.w3.org/2000/svg"><g fill="#fff" transform="translate(-111.854 -556.931)"><circle cx="164.415" cy="561.338" r="4.407"/><path d="m167.069 598.393.176-13.722c.056-3 .161-6.006.275-9.008a1.585 1.585 0 0 1 1.642-1.526c1.971.078 3.951.181 5.945.322l-2.612-7.019c-4.368.325-8.8.471-13.27.527s-8.961.047-13.484-.045c-9.011-.089-18.08-.336-27.234-.809l2.855 7.672c8.8-.473 17.688-.719 26.632-.809q4.993-.1 10.037-.072a3.364 3.364 0 0 1 3.336 3.235c.091 2.511.172 5.021.219 7.532l.062 4.894a23.744 23.744 0 0 0 -5.606-3.082 47.906 47.906 0 0 0 -16.071-2.7c-5.363.029-10.843.356-16.288 2.261a20.789 20.789 0 0 0 -7.7 4.616 13.661 13.661 0 0 0 -4.133 9.263 14.14 14.14 0 0 0 3.892 9.472 21.439 21.439 0 0 0 7.631 5.025c5.455 2.21 11.1 2.669 16.594 2.7 5.5-.158 11.087-.817 16.376-3.143a24.755 24.755 0 0 0 5.369-3.236l-.005 1.37c-.046 4.573-.074 5.638-.235 10.212a15.639 15.639 0 0 1 5.959 3.509q-.241-6.861-.316-13.721zm-12.969 11.048a28.491 28.491 0 0 1 -14.13 3.479 27.631 27.631 0 0 1 -13.911-3.92 18.77 18.77 0 0 1 -4.944-4.276 8.523 8.523 0 0 1 -1.915-4.8 8.879 8.879 0 0 1 1.674-5.012 18.906 18.906 0 0 1 4.879-4.684 26.028 26.028 0 0 1 14.218-4.362 26.785 26.785 0 0 1 14.436 3.922c4.2 2.541 7.219 6.548 7.09 10.136-.076 3.588-3.219 7.245-7.397 9.517z"/></g></svg>