<svg height="76.69" viewBox="0 0 39.544 76.69" width="39.544" xmlns="http://www.w3.org/2000/svg"><g fill="#272727" transform="translate(-552.429 -553.039)"><circle cx="571.773" cy="556.12" r="3.081"/><path d="m552.429 556.12a84.839 84.839 0 0 0 9.784 5.522 23.793 23.793 0 0 0 9.981 2.24 25.191 25.191 0 0 0 9.978-2.517 99.061 99.061 0 0 0 9.8-5.551 27.872 27.872 0 0 1 -8.027 8.64 21.564 21.564 0 0 1 -11.668 4.009 20.78 20.78 0 0 1 -11.808-3.692 26.477 26.477 0 0 1 -8.04-8.651z"/><path d="m586.859 600.035a23.619 23.619 0 0 0 -6.214-4.661 21.2 21.2 0 0 0 2.856-1.9 12.036 12.036 0 0 0 4.261-6.141 11.139 11.139 0 0 0 -1.094-7.947 16.939 16.939 0 0 0 -4.894-5.839c-4.34-3.265-10.141-3.873-15.124-2.678a21.572 21.572 0 0 0 -7.253 3.2q-.51.359-1.015.76a4.922 4.922 0 0 0 1.612 8.455l.507.171a5.05 5.05 0 0 0 5.186-1.363l.029-.029a11.8 11.8 0 0 1 3.618-2.432 9.492 9.492 0 0 1 12.117 2.884 5.666 5.666 0 0 1 1.353 3.821c-.133 2.747-2.889 6.621-6.384 7.687l-3.729 1.063a35.751 35.751 0 0 1 3.619 1.642c5.235 3.351 8.585 9.585 7.673 14.023a14.155 14.155 0 0 1 -3.549 6.584 12.375 12.375 0 0 1 -6.025 4.04 10.347 10.347 0 0 1 -6.919-.728 19.224 19.224 0 0 1 -6.464-5.076c-3.776-4.512-6.052-10.577-7.009-17.313a25.767 25.767 0 0 0 1.945 20.729 21.94 21.94 0 0 0 8 8.342 16.973 16.973 0 0 0 12.371 1.977 20.757 20.757 0 0 0 14.979-17.97 15.7 15.7 0 0 0 -4.453-11.301z"/></g></svg>