<svg height="74.274" viewBox="0 0 49.196 74.274" width="49.196" xmlns="http://www.w3.org/2000/svg"><g fill="#272727" transform="translate(-440.787 -554.247)"><path d="m461.018 558.654a4.408 4.408 0 1 1 4.408 4.408 4.407 4.407 0 0 1 -4.408-4.408z"/><path d="m483.214 574.013c2.241.166 4.494.368 6.769.638l-2.267-6.856a185.256 185.256 0 0 1 -23.022 1.218 170.223 170.223 0 0 1 -23.907-1.462l2.429 7.345a150.506 150.506 0 0 1 22.941-1.462q3.4.01 6.826.1a6.633 6.633 0 0 1 5.484 3.114 14.682 14.682 0 0 1 .825 1.538 7.123 7.123 0 0 1 .7 2.419.757.757 0 0 1 -.39.827c-1.234.652-3.725.873-5.876 1.034l-6.871.28a64.088 64.088 0 0 0 -7.178.543l-1.879.349-1.953.568a8.427 8.427 0 0 0 -4.038 2.86 6.653 6.653 0 0 0 -1.179 2.6c-.07.478-.119.967-.146 1.453.03.472.094.947.169 1.418a10.215 10.215 0 0 0 2.284 4.287 17.4 17.4 0 0 0 1.949 1.941c-.053.055-.113.1-.166.157a16.218 16.218 0 0 0 -4.7 11.654 16.01 16.01 0 0 0 5.4 11.023c5.833 5.181 13.076 6.939 19.9 6.93l.128-.658a69.842 69.842 0 0 1 -8.752-4.529 27.168 27.168 0 0 1 -6.771-5.953 10.519 10.519 0 0 1 -2.526-6.842 9.816 9.816 0 0 1 3.086-6.282 20.86 20.86 0 0 1 6.612-4.573 11.284 11.284 0 0 1 7.3-.539l.875.254.776.406c.608.2.921.651 1.45.964a5.089 5.089 0 0 1 1.635 2.916c.628 2.433-1.15 5.419-3.31 8.027l.1.149c.788-.332 1.568-.729 2.379-1.129a17.629 17.629 0 0 0 2.186-1.653 14.335 14.335 0 0 0 1.8-2.294c.216-.455.4-.945.589-1.437a4.066 4.066 0 0 0 .386-1.549 9.688 9.688 0 0 0 -1.463-6.4 12.553 12.553 0 0 0 -4.908-4.211 16.328 16.328 0 0 0 -12.276-.721 21.63 21.63 0 0 0 -4.651 2.2 12.434 12.434 0 0 1 -2.665-1.858 4.141 4.141 0 0 1 -1.167-1.6 1.393 1.393 0 0 1 .11-1.083 4.019 4.019 0 0 1 1.486-1.084c.325-.142 1-.372 1.338-.473.369-.111 1.5-.367 1.5-.367a59.039 59.039 0 0 1 6.552-.864l6.919-.454c1.176-.069 2.375-.176 3.607-.338a13.291 13.291 0 0 0 4.022-1.094 4.89 4.89 0 0 0 2.22-1.949 4.018 4.018 0 0 0 .593-1.4 4.721 4.721 0 0 0 .206-1.33 13.02 13.02 0 0 0 -.6-4.317c-.269-.864-.573-1.649-.87-2.451z"/></g></svg>