<svg height="67.589" viewBox="0 0 63.172 67.589" width="63.172" xmlns="http://www.w3.org/2000/svg"><g fill="#e8c50d" transform="translate(-219.042 -557.589)"><path d="m247.2 562a4.407 4.407 0 1 1 4.407 4.407 4.408 4.408 0 0 1 -4.407-4.407z"/><path d="m262.448 581.774c-.416-1.312-.836-2.571-1.234-3.833a1.1 1.1 0 0 1 1.069-1.43c6.5.107 13.1.373 19.931.972l-5.223-7.794a281.58 281.58 0 0 1 -28.155 1.04c-9.677-.089-19.483-.372-29.794-1.407l5.715 8.529a251.7 251.7 0 0 1 25.454-1.38 5.781 5.781 0 0 1 5.214 3.162 18.66 18.66 0 0 1 1.42 3.744 13.17 13.17 0 0 1 .527 4.033c-.037.569-.062.94-.341 1.042-.456.167-1.1-.008-2.247-.413s-2.612-1.124-4.567-1.673a12.154 12.154 0 0 0 -7.224.031 11.8 11.8 0 0 0 -3.351 1.8 15.226 15.226 0 0 0 -1.307 1.144l-.566.594-.277.3-.442.555a8.193 8.193 0 0 0 -1.515 4.771 12.446 12.446 0 0 0 .525 3.578 22.821 22.821 0 0 0 2.348 5.269 51.2 51.2 0 0 0 6.231 8.236 60 60 0 0 0 15.473 12.534 182.746 182.746 0 0 1 -10.641-16.1 68.3 68.3 0 0 1 -4.142-8.154 19.759 19.759 0 0 1 -1.175-3.757c-.06-.391-.138-.762 0-.969a3.1 3.1 0 0 1 .86-.8 3.786 3.786 0 0 1 .91-.443 5.01 5.01 0 0 1 2.35-.113c1.2.17 2.759.624 4.784.934a10.781 10.781 0 0 0 7.226-1.114 6.538 6.538 0 0 0 2.968-3.831 9.813 9.813 0 0 0 .34-3.552 25.893 25.893 0 0 0 -1.144-5.505z"/></g></svg>