<svg height="185.566" viewBox="0 0 181.605 185.566" width="181.605" xmlns="http://www.w3.org/2000/svg" xmlns:xlink="http://www.w3.org/1999/xlink"><filter id="a" filterUnits="userSpaceOnUse" height="175.852" width="181.605" x="0" y="0"><feOffset dy="3"/><feGaussianBlur result="blur" stdDeviation="10"/><feFlood flood-color="#048d87" flood-opacity=".718"/><feComposite in2="blur" operator="in"/><feComposite in="SourceGraphic"/></filter><g filter="url(#a)" transform="translate(-.004 .001)"><path d="m201.135 193.743a3.177 3.177 0 0 0 -2.2.35 18.047 18.047 0 0 1 -2.749.757c-.563.11-1.129.184-1.7.257a.121.121 0 0 0 .056-.076q.27-1.032.5-2.073a5.624 5.624 0 0 0 .221-1.976 4.628 4.628 0 0 0 -.658-1.639c-.359-.625-.74-1.238-1.136-1.84-.2-.3-.4-.6-.611-.9a3.372 3.372 0 0 0 -.211-.284.107.107 0 0 0 .05-.141.948.948 0 0 0 -1.286-.429 4.2 4.2 0 0 0 -1.432 1.414 15.493 15.493 0 0 1 -2.89 3.243.145.145 0 0 0 -.037.041c-1.8.057-2.978 1.551-4.349 2.527-.136.1-.276.188-.417.278a.128.128 0 0 0 -.046-.035 19.4 19.4 0 0 1 -6.675-5.907c-.922-1.178-1.795-2.394-2.716-3.572a50.852 50.852 0 0 0 -3.435-3.912c-1.035-1.074-2.109-2.11-3.2-3.132a.136.136 0 0 0 .012-.136c-1.278-2.823-1.433-6.014-1.47-9.067q-.06-5.014-.2-10.024c-.057-1.991-.1-4.8-.111-6.788-.259-2.258-1.183-4.679-3.257-5.859a8.748 8.748 0 0 0 -3.964-.861 11.153 11.153 0 0 1 -4.6-.913 20.038 20.038 0 0 1 -4.061-3.162l-.172-.282a8.609 8.609 0 0 1 -1.245-2.758 12.4 12.4 0 0 1 -.152-3.089 15.025 15.025 0 0 0 1.73-2.215 12.612 12.612 0 0 0 1.657-3.951.127.127 0 0 0 .105-.035 11.754 11.754 0 0 0 1.564-1.748 6.159 6.159 0 0 0 1.1-2.062 1.635 1.635 0 0 0 -.444-1.689 1.32 1.32 0 0 0 -1.212-.306 46.429 46.429 0 0 0 1.463-4.422 7.851 7.851 0 0 0 .184-3.515 6.717 6.717 0 0 0 -.965-2.319c-.019-.065-.035-.131-.055-.2a.345.345 0 0 0 -.251-.239 7.306 7.306 0 0 0 -2.217-1.933 3.248 3.248 0 0 0 .2-1.295 5.792 5.792 0 0 0 -.312-3.535 3.359 3.359 0 0 0 -.771-1.161 5.623 5.623 0 0 0 -1.077-.748 6.28 6.28 0 0 0 -2.82-1.345c-.2-.065-.395-.126-.6-.177a6.9 6.9 0 0 0 -2.668-.161 7.31 7.31 0 0 0 -4.087 1.009 4.449 4.449 0 0 0 -1.2 1.153 5.681 5.681 0 0 0 -.939.973 3.621 3.621 0 0 0 .056 4.581l.015.026a7.914 7.914 0 0 0 -3.483 3.383 8.7 8.7 0 0 0 -.669 6.192 11.338 11.338 0 0 0 1.238 3.007v.232a.891.891 0 0 0 .066.335.986.986 0 0 0 -.771.163c-.641.511-.545 1.545-.4 2.257a5.305 5.305 0 0 0 2.173 3.223 13.954 13.954 0 0 0 2.205 4.978c.171.244.353.489.542.733a11.116 11.116 0 0 1 .119 3.657 7.6 7.6 0 0 1 -1.9 3.253.13.13 0 0 0 -.017.03 16.189 16.189 0 0 1 -3.11 3.188 5.37 5.37 0 0 1 -2.341.894c-1 .126-2.006-.025-3.008.053a7.846 7.846 0 0 0 -6.474 5.4 23.626 23.626 0 0 0 -.679 7.279.129.129 0 0 0 -.006.045q.233 3.78.2 7.57a62.647 62.647 0 0 1 -.369 7.38 13.229 13.229 0 0 1 -2.181 5.823 47.367 47.367 0 0 1 -3.631 4.453 23.841 23.841 0 0 0 -3.624 5.09c-.96 1.048-2.342 2.561-3.369 3.523q-.8.748-1.625 1.464a6.7 6.7 0 0 1 -1.855 1.378c-1.434.527-2.718-.665-3.712-1.515a10.043 10.043 0 0 0 -3.176-1.852c-.4-.7-.8-1.408-1.215-2.1a5.363 5.363 0 0 0 -1.353-1.6 2.49 2.49 0 0 0 -1.766-.55c-.622.107-.564.828-.418 1.346-.093.222-.128.471-.2.7a5.929 5.929 0 0 1 -.386.92 9.318 9.318 0 0 0 -1.255 2.942 6.05 6.05 0 0 0 .226 1.953q.216 1.054.433 2.108a5.865 5.865 0 0 0 -2.884-.251.117.117 0 0 0 -.049-.171 29.777 29.777 0 0 0 -2.878-1.269q-.757-.287-1.529-.531a2.871 2.871 0 0 0 -1.313-.229.847.847 0 0 0 -.71.61.728.728 0 0 0 .421.737 14.238 14.238 0 0 0 1.305.6q.7.334 1.38.712a23.338 23.338 0 0 1 2.763 1.815c-.546.04-1.092.119-1.61.182a2.638 2.638 0 0 0 -1.262.4c-.256.187-.5.524-.289.833.225.328.836.4 1.186.469a13.393 13.393 0 0 0 1.632.21c1.364.109 2.731.2 4.1.3.025.158.145.267.371.282a13.521 13.521 0 0 0 2.049-.112c.447-.041.891-.1 1.335-.158a6.757 6.757 0 0 0 -3.367 8.751 9.1 9.1 0 0 0 3.661 4.14 14.173 14.173 0 0 0 3.058 1.323 22.584 22.584 0 0 0 3.594.971 33.957 33.957 0 0 0 4.115.195c1.449.038 3.439-.055 4.9-.021a.118.118 0 0 0 .023 0 55.239 55.239 0 0 0 13.538-1.926 65.152 65.152 0 0 0 6.639-1.8c1.079-.387 2.146-.8 3.216-1.205a.135.135 0 0 0 .105.071l20.5 2.4 20.6 2.416a90.13 90.13 0 0 0 11.555.956.1.1 0 0 0 .012 0 .123.123 0 0 0 .07 0 16.426 16.426 0 0 0 3.825-2.092c1.134-.784 2.291-1.545 3.386-2.383a5.574 5.574 0 0 0 2.2-2.461 7.14 7.14 0 0 0 .216-1.822c.033-.75-.048-2.357-.075-3.107a.091.091 0 0 1 -.006-.047 5.194 5.194 0 0 0 -1.765-2.848 24.961 24.961 0 0 0 -2.45-1.876 11.543 11.543 0 0 1 2.912-.178c.475.045.948.113 1.425.136.293.014.8.093 1.04-.122.475-.425-.366-1.148-.69-1.353a3.717 3.717 0 0 0 -1.058-.437 34.442 34.442 0 0 0 5.1-1.988q.666-.324 1.318-.678c.184-.1.454-.2.556-.392.249-.46-.315-.941-.695-1.085zm-107.535-1.043a4.827 4.827 0 0 0 -.222.819 10.137 10.137 0 0 0 -.126 1.283 3.883 3.883 0 0 1 -1.625-2.327 3.709 3.709 0 0 1 .647-2.963l.829 1.073c.3.389.74.841.714 1.37a2.578 2.578 0 0 1 -.217.745zm37.41-12.206a11.039 11.039 0 0 1 -2.345 5.069 10.977 10.977 0 0 0 -2.144 4.655 12.5 12.5 0 0 1 -.73 3.334 14.131 14.131 0 0 1 -1.891 2.848 4.3 4.3 0 0 0 -2.756-.457 5.282 5.282 0 0 0 -.619.134.956.956 0 0 0 -.418.185.4.4 0 0 0 -.03.046 25.227 25.227 0 0 0 -5.95.249c-2.12.183-4.812.586-6.932.769-.209 0-.418 0-.626.006 3.267-3.6 7.489-6.093 11.351-8.976a33.76 33.76 0 0 0 5.16-4.58 12.507 12.507 0 0 0 2.138-3.015 9.2 9.2 0 0 0 .545-3.8 15.942 15.942 0 0 1 .714-4.635 18.417 18.417 0 0 0 .946-4.224.125.125 0 0 0 .057-.074 7.518 7.518 0 0 0 .211-.971q.157.8.315 1.606a.113.113 0 0 0 .059.084c.969 3.896 3.393 7.605 2.942 11.753zm44.15 15.751q-2.07-.131-4.145-.127a17.022 17.022 0 0 1 -4.175-.327.968.968 0 0 0 -.056-.46 2.558 2.558 0 0 0 -1.345-1.471 4.829 4.829 0 0 0 -2.384-.154 19.073 19.073 0 0 1 -2.994-.7 3.9 3.9 0 0 0 -.568-.038c-.026-3.27-2.3-5.813-3.825-8.527-.479-.85-.922-1.719-1.359-2.591a5.646 5.646 0 0 1 -.865-3.006 15.066 15.066 0 0 1 .727-2.966l.841-2.893a15.088 15.088 0 0 0 .9-5.955c.078-.123.154-.247.224-.376a22.763 22.763 0 0 1 1.312 4.733c.282 1.753.23 3.521.407 5.282a14.166 14.166 0 0 0 2.912 7.221 15 15 0 0 0 3.288 3.117c.255.185 1.827 1.26 2.082 1.445h.011q2.7 2.125 5.544 4.054 1.455.984 2.945 1.913a18.5 18.5 0 0 1 2.887 2.024c-.789-.077-1.577-.143-2.366-.196zm17.164-3.774a5 5 0 0 1 -1.25 1.792 13.652 13.652 0 0 1 -1.495-1.71.124.124 0 0 0 .051-.07 8.991 8.991 0 0 1 2.151-3.479c.128.371.261.741.387 1.112a3.4 3.4 0 0 1 .153 2.357z" fill="#fff" opacity="1" transform="translate(-50.29 -73.64)"/></g><path d="m-76.073-19.693a6.126 6.126 0 0 0 -3.24 3.132 9.877 9.877 0 0 0 -.9 4.032 8.172 8.172 0 0 0 7.38 8.244c.4.036.756.072 1.152.072 5.976 0 10.4-5.436 10.512-10.62.108-4.752-1.332-6.732-4.212-10.152-2.916-3.456-7.488-6.732-7.56-11.268l-.36-.108a7.425 7.425 0 0 0 -1.224 4.392 9.272 9.272 0 0 0 .684 3.492c2.088 5.112 10.512 9.108 10.512 14.615-.324 3.78-4.14 5.688-7.488 5.9l.648-.648v-12.739l-3.132-3.78v16.992c-3.024-.576-5.04-2.52-5.04-5.616a8.191 8.191 0 0 1 .288-2.2 7.617 7.617 0 0 1 2.268-3.42zm19.835-4.32-3.24 2.16v7.853c0 3.348.9 5.652 3.24 6.732l4.212-3.564-.612-.864-1.836 1.4c-1.332.108-1.764-1.656-1.764-4.1zm-3.528-3.456 2.052 2.052 6.124-5.252-2.124-2.088zm14.615.5c-.252 3.816-8.856 4.86-8.856 11.879v1.62a6.531 6.531 0 0 0 3.528 6.192l3.24-2.952a5.254 5.254 0 0 0 2.739 2.957l4.212-3.564-.576-.864-1.836 1.401c-1.3.108-1.728-1.44-1.8-3.708v-6.8h-1.73a5.308 5.308 0 0 0 1.4-1.584 6.118 6.118 0 0 0 .576-2.664 3.386 3.386 0 0 0 -.5-2.016zm-2.699 12.969a13.3 13.3 0 0 0 .216 2.484l-1.3 1.008c-1.116-.036-1.656-1.116-1.764-2.952v-1.728c0-2.16 1.4-3.384 2.844-4.428zm14.507-10.332c-1.512 2.124-7.6 2.484-8.532 2.664l-.54 3.6c1.368 1.4 5.472 5.148 6.012 6.8.324 1.008 0 1.692-.72 1.692a2.284 2.284 0 0 1 -1.3-.5 4.1 4.1 0 0 1 -1.656-2.268l-2.664 2.16a5.41 5.41 0 0 0 3.888 3.24c1.8-.036 4.392-1.98 5.148-4.356.468-2.808-3.888-6.444-5.148-7.632 1.836-.144 4.392-.684 5.4-2.628a6.554 6.554 0 0 0 .432-2.664zm-4.86-4.1-2.088 2.124 2.088 2.052 2.052-2.052zm18.756 21.159 4.284-3.564-.612-.864-1.836 1.4c-1.332.108-1.872-1.656-1.872-4.1v-19.475l-3.2 2.16v9.36l-2.017-1.657c-2.808.972-3.924 2.88-3.924 7.308v2.705c0 3.348.972 5.652 3.276 6.732l3.348-2.849a4.983 4.983 0 0 0 2.553 2.844zm-2.952-4.14-1.152.9c-1.4-.108-1.8-1.44-1.8-3.888v-2.592c0-2.16.612-3.816 2.016-4.032l.648.4v6.625a10.409 10.409 0 0 0 .287 2.587zm-5.184-16.055 2.052 2.052 2.088-2.052-2.088-2.088zm20.375 16.523-2.192 1.584c-.648-.216-4.068-.5-4.068-3.42v-.576l2.88.144c2.3-1.116 2.916-3.564 2.844-5.616a5.363 5.363 0 0 0 -3.888-5.22l-5.112 4.572v6.768c0 4.428 3.888 5.436 6.372 5.94l3.78-3.456zm-6.264-3.672v-6.083l.324-.288a3.428 3.428 0 0 1 2.016 2.88c.144 1.764-.54 3.384-1.8 3.492zm-2.2-12.851 2.052 2.052 2.124-2.052-2.124-2.088zm4.212 0 2.06 2.052 2.124-2.052-2.124-2.088zm5.544-4.248v17.716c0 3.348.9 5.652 3.24 6.732l4.248-3.564-.572-.868-1.836 1.4c-1.368.108-1.908-1.656-1.908-4.1v-19.476zm18.287 4.752c-.248 3.815-8.851 4.864-8.851 11.879v1.62a6.531 6.531 0 0 0 3.528 6.192l3.24-2.952a5.254 5.254 0 0 0 2.736 2.952l4.212-3.564-.576-.864-1.836 1.4c-1.3.108-1.728-1.44-1.8-3.708v-6.8h-1.724a5.307 5.307 0 0 0 1.4-1.584 6.118 6.118 0 0 0 .576-2.664 3.386 3.386 0 0 0 -.5-2.016zm-2.695 12.964a13.3 13.3 0 0 0 .216 2.484l-1.292 1.003c-1.116-.036-1.656-1.116-1.764-2.952v-1.728c0-2.16 1.4-3.384 2.844-4.428zm5.94-17.711v17.711c0 3.348.9 5.652 3.24 6.732l4.244-3.569-.576-.864-1.836 1.4c-1.368.108-1.908-1.656-1.908-4.1v-19.475zm5.94 12.239v12.2h3.276v-13.428l.324-.288c1.8.72 2.268 2.7 2.268 5.076v5.724l3.24 2.664v-8.64a15.222 15.222 0 0 0 -.5-4.1l.828-.72c1.8.72 2.268 2.7 2.268 5.076v9.9l3.24 2.628v-12.785c0-4.32-1.188-6.984-4-7.884l-2.844 2.556a5 5 0 0 0 -2.988-2.556zm25.054-7.492c-.252 3.816-8.856 4.86-8.856 11.879v1.62a6.531 6.531 0 0 0 3.528 6.192l3.24-2.952a5.254 5.254 0 0 0 2.736 2.952l4.212-3.564-.576-.864-1.836 1.4c-1.3.108-1.728-1.44-1.8-3.708v-6.8h-1.728a5.307 5.307 0 0 0 1.4-1.584 6.118 6.118 0 0 0 .576-2.664 3.386 3.386 0 0 0 -.5-2.016zm-2.7 12.964a13.3 13.3 0 0 0 .216 2.484l-1.3 1.008c-1.116-.036-1.656-1.116-1.764-2.952v-1.728c0-2.16 1.4-3.384 2.844-4.428z" fill="#209393" opacity=".76" transform="translate(105.413 188.952)"/></svg>