<svg height="770.094" viewBox="0 0 770.094 770.094" width="770.094" xmlns="http://www.w3.org/2000/svg" xmlns:xlink="http://www.w3.org/1999/xlink"><clipPath id="a"><path d="m0 0h770.094v770.094h-770.094z"/></clipPath><linearGradient id="b" gradientUnits="objectBoundingBox" x2="1" y1=".5" y2=".5"><stop offset="0" stop-color="#86d5c9"/><stop offset=".504" stop-color="#baf8e4" stop-opacity=".502"/><stop offset=".732" stop-color="#9de5d5" stop-opacity=".886"/><stop offset="1" stop-color="#659da9" stop-opacity=".984"/></linearGradient><g clip-path="url(#a)"><path d="m1054.849 452.067c-18.632-5.773-32.435-20.574-44.125-35.483-5.555-7.088-13.295-15.18-17.215-23.332-2.05-4.265-1.16-1.425-.664-5.217.346-2.637 2.187-5.871 3.122-8.374 2.024-5.425 4.054-10.848 6.232-16.212 6.834-16.814 15.223-34.248 29.958-45.574 5.445-4.182 13.534-12.14 3.951-17.98-3.849-2.344-9.639-1.611-13.982-2.492a73.238 73.238 0 0 1 -15.938-5.351c-9.558-4.39-18.3-10.37-26.668-16.685-4.262-3.214-8.428-6.553-12.577-9.91-1.694-1.369-3.381-2.749-5.072-4.123-3.784-3.076-6.156-3.855-6.507-8.537-.687-9.158 1.807-19.865 3.031-28.979 1.314-9.794 3.077-19.608 6.333-28.963a76.256 76.256 0 0 1 12.015-21.962c5.717-7.357 4.48-17.242-6.877-16.571-10.721.633-19.588 1.856-30.4-.457-11.924-2.547-23.314-7.134-34.473-11.956-5.018-2.172-10-4.433-14.986-6.663-1.217-.544-4.67-1.583-5.36-2.386-1.127-1.311-1.19-7.137-1.488-8.9-1.927-11.453-3.954-22.93-4.8-34.526-.7-9.609-.673-19.382 1.348-28.843 1.583-7.428 10.5-19.551 3.9-26.1-6.513-6.475-16.506 1.63-23.414 3.453-10.279 2.717-21.056 2.925-31.606 2.232-11.619-.764-23.132-2.7-34.617-4.537a38.506 38.506 0 0 1 -5.745-.923c-3.992-1.365-3.57-1.934-5.4-5.956-2.738-6-5.518-11.98-8.14-18.031-4.186-9.663-8.12-19.53-10.552-29.8-2.629-11.111-1.608-20.686-1.015-31.8.47-8.8-7.31-13.427-14.727-8.437-7.972 5.363-14.567 10.593-23.828 13.9a144.243 144.243 0 0 1 -27.563 6.364c-4.724.7-9.466 1.258-14.213 1.779-4.961.545-12.616 2.856-17.46 1.822-4.186-.893-8.428-8.274-11.357-11.844-3.382-4.118-6.754-8.249-9.994-12.482-6.644-8.676-12.995-17.763-17.47-27.779a73.916 73.916 0 0 1 -4.559-13.206c-.969-4.122-.533-9.346-1.953-13.263a9.13 9.13 0 0 0 -8.485-6.242c-5.526-.006-7.539 4.519-10.4 8.308-11.239 14.844-28.643 23.4-45.436 30.38-4.9 2.036-9.851 3.946-14.809 5.839-2.276.873-4.557 1.736-6.835 2.608-4.3 1.645-3.981 1.976-7.944.337-8.774-3.63-18.347-12.965-25.8-18.841a140.819 140.819 0 0 1 -19.7-18.237c-6.386-7.4-9.583-15.245-13.829-23.779-3.937-7.92-13.075-7.915-16.974.06-4.2 8.585-7.345 16.483-13.689 23.95a141.151 141.151 0 0 1 -19.593 18.424c-4.091 3.278-8.294 6.416-12.52 9.52-4.025 2.953-9.5 8.782-14.211 10.308-6.1 1.978-22.1-6.908-28.612-9.552-9.229-3.75-18.388-7.877-26.793-13.266a73.185 73.185 0 0 1 -18.78-16.691c-2.41-3.134-4.054-6.92-8.251-7.958a9.033 9.033 0 0 0 -10.641 6.041c-1.422 4-.9 9.079-1.864 13.312a74.1 74.1 0 0 1 -4.47 13.278c-4.4 10.064-10.7 19.226-17.284 27.964-4.443 5.893-14.378 22.818-21.064 24.306-4.473.995-11.63-1.1-16.227-1.557-5.694-.573-11.382-1.186-17.044-2.01a140.806 140.806 0 0 1 -26.176-5.945c-9.229-3.213-15.926-8.408-23.868-13.677-7.439-4.932-15.2-.279-14.672 8.539.668 11.134 1.768 20.719-.77 31.893-2.339 10.305-6.214 20.221-10.329 29.927-2.377 5.609-4.89 11.156-7.378 16.714-.716 1.6-1.682 5.668-2.979 6.681-1.89 1.477-8.052 1.345-10.516 1.76-20.957 3.53-43.438 7.932-64.469 2.552-6.919-1.77-16.93-9.777-23.388-3.268-6.7 6.746 2.435 18.57 4.108 26.122 4.614 20.843.359 42.8-2.963 63.505-.28 1.739-.29 7.348-1.38 8.657-.682.819-4.263 1.933-5.5 2.5-5.5 2.506-10.977 5.047-16.511 7.471-10.607 4.65-21.45 9.024-32.789 11.542-10.767 2.392-19.622 1.241-30.323.684-11.185-.581-12.576 9.246-6.758 16.628 11.662 14.8 16.177 32.526 18.789 50.894 1.235 8.694 4.345 20.17 3.242 28.815-.536 4.194-.832 3.86-4.356 6.768q-2.412 1.989-4.819 3.984c-4.949 4.081-9.9 8.161-14.992 12.064-8.676 6.647-17.771 12.982-27.78 17.47a73.324 73.324 0 0 1 -13.21 4.561c-4.742 1.114-11.125.3-15.285 2.879-9.557 5.914-1.4 13.8 4.092 17.963 7.45 5.64 13.392 13 18.276 20.91a171.938 171.938 0 0 1 12.1 24.527c1.851 4.448 3.593 8.942 5.318 13.44 1.052 2.734 2.084 5.471 3.131 8.206 1.646 4.309 2.222 4 .333 7.941-4.1 8.56-12.16 17.227-17.977 24.691-6.051 7.758-12.522 15.294-20.086 21.629-7.216 6.048-14.575 8.913-22.793 13-10.228 5.092-6.107 14.358 2.461 17.778 17.507 6.988 30.268 20.07 41.721 34.68 5.645 7.2 13.189 15.129 17.216 23.332 1.859 3.789 1.157 3.9-.391 8.035q-1.035 2.779-2.067 5.557c-2.024 5.422-4.054 10.848-6.232 16.211-7.317 18-16.217 35.107-31.982 47.062-6.051 4.59-9.737 13.917.1 17.4 4.028 1.425 9.109.909 13.312 1.862a76.183 76.183 0 0 1 15.887 5.671c9.056 4.322 17.376 10.06 25.367 16.089 4.263 3.213 8.426 6.555 12.579 9.91 2.446 1.976 4.879 3.969 7.319 5.951 3.581 2.908 3.924 2.353 4.26 6.712.7 9.042-1.825 20-3.03 28.982-1.371 10.21-3.228 20.46-6.769 30.166-3.222 8.83-8.154 15-13.236 22.659-6.547 9.874 2.276 15.414 11.4 14.094 21.763-3.15 42.323 4.47 62.011 12.99 5.015 2.167 9.988 4.431 14.98 6.658 4.212 1.881 4.209 1.412 5.853 5.377.631 1.522.744 4.42.993 5.913 1.928 11.451 3.948 22.932 4.8 34.525.741 10.07.659 20.326-1.662 30.2-1.723 7.322-10.78 19.246-2.683 25.441 6.618 5.063 18.16-3.241 25.221-4.8 10.452-2.316 21.315-2.238 31.933-1.348 10.589.889 21.079 2.641 31.566 4.311 6.806 1.084 8.335.69 11.154 6.871 2.735 6 5.518 11.983 8.141 18.034 4.185 9.663 8.121 19.528 10.552 29.8 2.663 11.254 1.637 20.543 1.015 31.8-.628 11.353 9.31 12.531 16.623 6.757a77.611 77.611 0 0 1 24.389-13.052 155.531 155.531 0 0 1 26.505-5.737c4.742-.673 9.5-1.217 14.264-1.731 3.918-.427 14.025-3.216 17.478-1.82 2.856 1.155 7.941 9.617 9.9 12 3.384 4.12 6.749 8.254 9.994 12.483 6.658 8.673 12.961 17.775 17.469 27.779a72.751 72.751 0 0 1 4.561 13.209c1.037 4.416.4 10.253 2.415 14.27 5.779 11.51 14.6 1.762 19.2-4.06 11.859-15.021 29.975-23.452 47.3-30.48 4.49-1.82 9.015-3.552 13.54-5.28 2.276-.87 4.554-1.733 6.831-2.6 3.761-1.44 3.02-1.286 6.577.185 9.005 3.724 18.139 12.8 25.8 18.841a141.049 141.049 0 0 1 19.694 18.237c6.418 7.439 9.552 15.157 13.828 23.778 4.647 9.363 13.546 6.846 17.378-1.258 4.328-9.158 8.121-17.038 15-24.7a154.885 154.885 0 0 1 20.086-18.222c3.772-2.953 7.619-5.807 11.485-8.633 3.181-2.327 10.541-9.8 14.23-10.316 2.942-.414 11.1 4.142 13.965 5.217 4.5 1.69 9.005 3.395 13.463 5.207 9.229 3.752 18.388 7.877 26.793 13.267a73.179 73.179 0 0 1 18.778 16.691c2.691 3.5 4.46 7.485 9.317 8.078 5.215.638 8.356-2.734 9.766-7.29 1.3-4.194.927-9.178 2.011-13.535a76.885 76.885 0 0 1 5.326-14.526c4.775-10 11.259-19.125 18-27.877 3.278-4.256 6.657-8.43 10.044-12.6q1.945-2.4 3.9-4.788c2.9-3.578 2.458-3.7 6.711-4.259 9.663-1.28 22.114 2.015 31.768 3.415a140.908 140.908 0 0 1 26.174 5.945c9.275 3.228 15.864 8.334 23.867 13.674 8.587 5.731 15.4-.866 14.382-9.968-1.309-11.653-1.167-21.942 1.779-33.41 2.654-10.328 6.692-20.267 10.921-30.034 2.172-5.016 4.433-10 6.663-14.988 1.226-2.748 1.477-4.36 3.883-5.612 2.661-1.386 7.661-1.278 10.627-1.774 20.455-3.428 42.346-7.528 62.857-2.276 6.857 1.754 17.11 9.586 23.389 3.265 6.526-6.567-2.506-18.884-4.108-26.12-4.822-21.784-.031-44.746 3.425-66.364.21-1.315.323-4.926.921-5.8.973-1.429 6.58-2.993 8.211-3.738 5.092-2.326 10.178-4.67 15.316-6.894 10.569-4.576 21.4-8.867 32.717-11.193 9.987-2.053 18.9-1.081 28.872-.373 11.343.805 12.423-9.435 6.761-16.625-11.969-15.185-16.4-33.454-18.983-52.3-.718-5.243-1.294-10.5-1.848-15.764-.362-3.435-2.872-11.635-1.511-14.576 1.548-3.354 9.28-7.664 12-9.9 4.924-4.045 9.871-8.069 14.974-11.884 7.929-5.93 16.227-11.516 25.288-15.579a73.322 73.322 0 0 1 13.207-4.559c4.561-1.072 11.225-.365 15.286-2.88 9.333-5.776 1.431-13.782-4.092-17.962-7.453-5.642-13.389-12.991-18.276-20.907-5.3-8.576-9.4-17.848-13.184-27.167-1.824-4.488-3.555-9.016-5.283-13.54q-1.044-2.733-2.081-5.468c-2.047-5.352-1.922-5.723 1.408-10.4 10.723-15.04 21.242-30.878 35.333-43.041a76.161 76.161 0 0 1 21.387-13.013c3.715-1.514 7.183-2.738 8.306-7.06a8.985 8.985 0 0 0 -5.978-10.733zm-167.286-296.429c20.91 9.374 42.759 19.3 66.055 19.969-10.908 20.628-13.028 44.573-15.191 67.409-11.844-8.607-24.412-16.337-38.036-21.8 3.482-5.532 11.7-11.7 7.473-18.963-4.235-7.285-13.584-3.125-20.149-2.814 1.985-14.527 1.479-29.265-.152-43.801zm5.281 81.607c44.239 17.259 72.5 62.091 118.3 75.776-32.518 35.029-34.157 88.016-63.593 125.293-14.3-12.331-25.031-28.3-36.033-43.48-5.454-7.524-10.978-15.008-16.9-22.177q-4.348-5.263-8.99-10.27c-2.783-2.98-9.189-7.288-10.992-10.812-1.7-3.319 1.435-9.508 2.435-13.584 1.147-4.682 2.1-9.409 2.925-14.157 1.68-9.708 2.758-19.5 3.713-29.308 1.866-19.155 2.919-38.913 9.135-57.281zm-134.21 253.423a118.276 118.276 0 0 0 -14.134-20.73c-1.392-1.633-4.06-3.6-4.95-5.471-1.716-3.615-2.946.371-.015-4.308 2.486-3.964 6.55-7.341 9.364-11.148 10.11-13.675 16.885-29.424 21.128-45.834 1.029-3.983 1.6-8.054 2.369-12.086q48.571 30.667 96.6 62.176c-33.528 20.2-66.844 40.716-100.935 59.981a131.256 131.256 0 0 0 -9.427-22.58zm-104.5 212.694q4.11 55.419 7.327 110.9c-35.793-14.086-71.341-28.262-106.255-44.462 20.569-18.236 37.642-39.278 44.67-68.069 18.217 4.963 36.413 4.846 54.261 1.63zm-331.227-.622c5.81 23.021 18.6 43.1 35.441 59.63.533.521 1.123.979 1.662 1.492-35.184 16.7-71.044 31.309-107.148 45.824q2.745-53.659 6.281-107.277c20.533 5.083 41.608 6.545 63.767.33zm-64.828-599.87q50.373 29.475 100.308 59.681a6.753 6.753 0 0 0 1.06.382c-17.635 16.865-32.027 36.31-38.309 62.037-24.227-6.586-48.622-4.323-72.1 2.6 3.148-41.544 6.769-83.091 9.041-124.7zm401.948-1.506c2.594 41.758 6.549 83.441 10.022 125.126-23.13-6.8-46.874-9.623-71.981-2.588-5.908-23.456-19.058-43.826-36.328-60.542-.547-.528-1.151-.993-1.7-1.516.045-.026.088-.022.132-.049q49.656-30.664 99.855-60.432zm24.8 129.953a7.061 7.061 0 0 0 .313-2.586c-3.858-46.658-8.607-93.3-11.136-140.054-.3-5.537-6.176-9.384-11.228-6.387q-55.383 32.843-110.176 66.674a6.934 6.934 0 0 0 -2.932 3.659c-4.286-3.544-8.687-6.954-13.149-10.27-3.917-2.911-7.886-5.751-11.859-8.582-2.728-1.945-5.461-3.881-8.182-5.837-4.2-3.017-5.913-3.088-3.342-7.9 10.815-20.267 26.417-37.485 47.064-47.945 17.757-9 37.553-12.576 57.147-14.911 28.626-3.41 59.454-3.683 85.428-17.694 1.425 38.665 26.3 71.825 37.821 107.779 11.356 35.454 6.406 70.1-14.2 101.215-13.772-6.001-27.588-12.083-41.568-17.161zm-188.057-118.299c-8.158-6.758-15.9-14.241-21.764-23.12-4.159-6.3-6.726-21.663-15.992-21.627-9.2.032-11.242 14.416-15.115 20.648-5.843 9.411-13.859 17.313-22.285 24.414-12.774-23.983-31.45-44.212-55.957-56.362 28.5-29.6 70.97-46.163 93.007-81.923 22.345 35.583 64.99 51.8 93.7 81.23-24.439 12.31-42.986 32.659-55.594 56.74zm-89.37 11.433c-13 9.639-26.142 19.214-38.269 29.613a6.948 6.948 0 0 0 -3.276-4.4q-55.038-33.418-110.667-65.848c-5.075-2.959-10.925.932-11.182 6.472-2.178 46.774-6.577 93.446-10.085 140.133a6.957 6.957 0 0 0 .276 2.139c-.81.308-1.633.57-2.441.887-6.694 2.634-13.279 5.528-19.833 8.49-3.368 1.522-6.724 3.071-10.088 4.6q-2.943 1.342-5.893 2.672-3.634 3.357-4.839-1.6c-5.388-4.7-9.118-15.946-11.733-22.481a106.19 106.19 0 0 1 -5.851-19.964c-11.267-60.256 39.85-105.964 41.527-163.864 34.354 18.18 75.677 13.085 112.719 21.248 35.798 7.888 63.029 29.097 79.635 61.903zm-255.857 396.649c-.319 1.158-.44 2.357-.735 3.519-33.565-21.63-66.188-44.593-99.077-67.217q48.839-27.906 98.079-55.094a142.9 142.9 0 0 0 11.22 31.309 118.719 118.719 0 0 0 13.551 20.922c1.072 1.323 8.935 8.175 8.941 9.857.008 2.135-8.3 9.164-9.762 11.046-10.509 13.51-17.695 29.2-22.217 45.658zm-4.909-133.981c-.149.071-.29.055-.437.137q-56.422 31.029-112.277 63.069c-5.138 2.945-4.427 9.8.048 12.859 37.434 25.563 74.265 51.92 112.449 76.376a6.8 6.8 0 0 0 1.181.456q-2.38 13.873-3.761 27.893c-.343 3.484-.661 6.971-1 10.455-.136 1.386-.035 5.158-.667 6.667-1.71 4.083.02 3.35-4.77 3.513a130.549 130.549 0 0 1 -25.484-1.5c-28.119-4.6-50.726-20.634-68.937-41.932-22.922-26.804-39.407-61.523-70.22-80.512 32.7-20.538 48.978-58.555 74.286-86.474 24.745-27.3 56.794-40.524 93.713-38.534 1.842 15.808 3.193 31.828 5.876 47.524zm97.871 311.053q-4.1 61.366-7.188 122.792c-.222 4.464 5.046 8.916 9.452 7.145 42.263-16.991 84.287-33.762 125.354-53.518 3.723 3.053 7.5 6.039 11.353 8.922 3.915 2.926 7.884 5.78 11.863 8.619q3.793 2.708 7.593 5.411c4.394 3.15 7.37 3.419 4.482 8.754-10.82 20-26.385 36.983-46.846 47.281-17.66 8.885-37.3 12.452-56.761 14.784-28.681 3.433-59.576 3.673-85.6 17.714-1.428-38.429-26.034-71.452-37.614-107.142-11.442-35.275-6.9-69.868 13.457-101.026 16.701 7.245 33.432 14.692 50.455 20.261zm179.315 115.116c8.26 6.818 16.107 14.361 22.054 23.326 4.185 6.312 6.808 21.82 16.1 21.783 9.22-.034 11.288-14.524 15.191-20.763 5.939-9.494 14.091-17.441 22.63-24.584 12.753 23.634 31.3 43.546 55.518 55.552-28.5 29.59-70.966 46.15-93 81.907-22.343-35.578-64.976-51.795-93.683-81.219 24.17-12.178 42.602-32.239 55.19-56.002zm90.2-11.333c9.614-7.1 19.291-14.194 28.587-21.6 41 19.311 82.928 35.691 125.089 52.277 4.419 1.739 9.652-2.755 9.4-7.216q-3.579-62.71-8.28-125.345a213.79 213.79 0 0 0 24.17-8.28c7.026-2.872 13.942-6.007 20.845-9.159 2.882-1.315 5.759-2.64 8.645-3.946 6.242-2.825 6.139-2.936 9.717 3.013 7.738 12.867 13.494 26.953 15.787 41.841 9.081 58.938-40.407 103.893-42.052 160.714-34.166-18.07-75.26-13.138-112.121-21.114-35.676-7.72-63.045-28.592-79.786-61.185zm257.969-273.75c38.87-21.808 76.6-45.448 114.844-68.321 4.993-2.986 4.573-9.826-.049-12.861q-53.827-35.331-108.283-69.7a6.929 6.929 0 0 0 -3.492-1.081q1.315-9.844 2.289-19.727c.342-3.532.665-7.065 1.02-10.593.117-1.172.042-4.54.6-5.823 1.582-3.636.336-2.948 4.732-3.1a130.422 130.422 0 0 1 25.459 1.506c28.107 4.61 50.7 20.651 68.9 41.941 22.918 26.8 39.4 61.52 70.209 80.506-32.718 20.548-48.993 58.586-74.318 86.513-24.786 27.335-56.9 40.529-93.87 38.492-2.215-19.272-3.838-38.857-8.039-57.752zm109.973-310.867c-19.642 37.139-12.374 82.18-23.5 121.752-22.833-14.974-49.676-20.868-76.778-19.774 1.822-10.3 4.493-20.622 9.3-29.961 3.391-6.58 14.117-15.034 10.858-22.947-3.857-9.366-17.524-3.647-25.047-3.792-11.545-.223-22.9-3.415-33.67-7.356 14.687-23.245 23.152-49.864 21.4-77.505 39.902 9.891 75.449 38.366 117.437 39.583zm-90.819-162.146c23.383 3.777 47.886 8.14 71.351 2.567-10.655 46.6 14.43 93.318 7.564 140.327-19.114-3.639-36.864-12.512-54.5-20.358-8.48-3.773-17.007-7.464-25.727-10.652-4.5-1.645-9.047-3.17-13.648-4.516-2.977-.869-12.2-1.548-14.18-3.516-1.862-1.847-2.369-9.951-3.156-12.657-1.34-4.625-2.879-9.193-4.537-13.714-3.221-8.77-6.949-17.338-10.8-25.846-8.141-17.986-17.45-36.034-21.35-55.545 22.996-3.513 46.25.246 68.983 3.91zm-47.176-87.679c.859 23.317 11 45.114 20.546 65.971-14.575-1.534-29.339-1.944-43.881.148.246-6.543 4.356-15.97-2.966-20.166-7.279-4.168-13.357 4.049-18.877 7.59-5.544-13.556-13.345-26.046-22.014-37.803 22.796-2.34 46.678-4.672 67.192-15.74zm-200.912-23.044c22.14-8.425 45.528-16.891 63.066-33.448 14.073 45.679 59.144 73.585 76.71 117.719-17.9 6.241-37.171 7.533-55.884 9.486-9.72 1.013-19.442 2.121-29.071 3.807-4.719.824-9.414 1.782-14.067 2.92-4.089 1-11.827 4.522-15.078 2.891-3.413-1.714-7-7.307-9.811-9.925-3.35-3.124-6.814-6.124-10.353-9.03-7.236-5.948-14.8-11.482-22.42-16.93-15.582-11.133-32.066-21.89-44.799-36.386 18.166-14.545 40.186-22.913 61.707-31.104zm-84.7-52.342c12.411 19.765 32.087 33.57 50.785 46.86-13.373 5.954-26.353 12.973-37.893 22.042-3.05-5.779-4.291-15.987-12.693-15.956-8.389.027-9.544 10.187-12.554 16.012-11.579-8.969-24.58-15.886-37.967-21.732 18.576-13.423 38.091-27.382 50.32-47.226zm-185.514 80.5c14.96-18.365 30.986-37.393 37.892-60.5 35.027 32.518 88.014 34.158 125.293 63.594-12.335 14.296-28.31 25.031-43.485 36.031-7.53 5.46-15.023 10.983-22.2 16.907q-5.271 4.341-10.285 8.991c-2.985 2.783-7.3 9.192-10.824 11-3.318 1.7-9.5-1.435-13.577-2.437-4.676-1.149-9.4-2.105-14.144-2.929-9.7-1.685-19.488-2.768-29.282-3.723-19.155-1.871-38.911-2.925-57.278-9.143 8.459-21.682 23.344-39.937 37.888-57.791zm-99.527-2.98c20.628 10.909 44.575 13.028 67.409 15.191-8.607 11.842-16.334 24.411-21.796 38.031-5.531-3.478-11.7-11.692-18.963-7.468-7.285 4.234-3.134 13.584-2.829 20.149-14.526-1.984-29.257-1.475-43.788.156 9.374-20.906 19.296-42.761 19.965-66.06zm-120.414 162.474c3.772-23.383 8.138-47.88 2.563-71.343 46.606 10.62 93.3-14.428 140.31-7.573-3.636 19.112-12.491 36.863-20.335 54.506-3.77 8.477-7.458 17-10.64 25.715-1.643 4.5-3.165 9.046-4.508 13.643-.869 2.976-1.542 12.191-3.509 14.176-1.847 1.862-9.957 2.377-12.662 3.16-4.63 1.345-9.2 2.885-13.722 4.545-8.774 3.225-17.346 6.959-25.857 10.812-17.987 8.145-36.04 17.444-55.557 21.338-3.51-23 .251-46.25 3.917-68.979zm101.461 47.854c-1.571 27.693 7.089 54.284 21.978 77.448-10.771 4.031-22.071 7.245-33.632 7.585-7.642.222-21.082-5.425-25.04 3.972-3.294 7.818 7.63 16.378 11.014 22.843 4.876 9.3 7.613 19.607 9.5 29.886-27.063-.887-53.854 5.19-76.552 20.29-4.872-16.9-6.671-34.485-8.453-51.927-2.41-23.566-4.536-48.354-15.986-69.583 41.987-1.546 77.331-30.357 117.171-40.514zm-123.161-21.224c-1.532 14.569-1.942 29.333.148 43.872-6.541-.243-15.978-4.343-20.166 2.979-4.166 7.282 4.051 13.357 7.59 18.881-13.554 5.543-26.046 13.34-37.805 22.011-2.34-22.795-4.67-46.682-15.738-67.2 23.314-.856 45.109-10.994 65.971-20.543zm-122.473 158.394c45.676-14.071 73.59-59.139 117.726-76.7 6.239 17.9 7.536 37.168 9.484 55.881 1.013 9.728 2.113 19.457 3.8 29.1.824 4.724 1.78 9.421 2.916 14.08 1 4.091 4.52 11.841 2.889 15.092-1.71 3.408-7.3 7-9.919 9.8-3.122 3.345-6.118 6.8-9.026 10.338-5.947 7.228-11.479 14.783-16.921 22.393-11.136 15.579-21.894 32.064-36.392 44.8-29.678-37.075-31.746-90.029-64.557-124.784zm-18.887 147.768c19.76-12.413 33.567-32.09 46.86-50.787 5.954 13.375 12.971 26.353 22.04 37.893-5.78 3.051-15.986 4.291-15.956 12.694s10.184 9.541 16.013 12.554c-8.969 11.579-15.887 24.577-21.734 37.964-13.422-18.571-27.381-38.088-47.223-50.318zm143.576 305.006c-20.908-9.372-42.757-19.3-66.056-19.965 10.912-20.628 13.024-44.579 15.186-67.417 11.849 8.605 24.42 16.332 38.046 21.792-3.482 5.538-11.7 11.707-7.478 18.974 4.234 7.288 13.58 3.128 20.147 2.819-1.982 14.526-1.474 29.262.155 43.797zm-5.287-81.6c-44.236-17.262-72.5-62.1-118.3-75.783 32.52-35.027 34.16-88.013 63.6-125.29 14.3 12.331 25.03 28.3 36.031 43.478 5.457 7.527 10.977 15.014 16.9 22.186 2.9 3.509 5.885 6.948 8.989 10.278 2.782 2.982 9.184 7.291 10.988 10.818 1.7 3.319-1.432 9.506-2.432 13.583-1.147 4.681-2.1 9.406-2.92 14.153-1.68 9.7-2.757 19.5-3.712 29.3-1.873 19.152-2.926 38.908-9.144 57.276zm10.883 19.9c19.645-37.119 12.38-82.15 23.488-121.709 22.946 15.063 49.737 20.8 76.949 19.684-1.7 10.011-4.149 20.05-8.545 29.25-3.137 6.569-13.389 15.276-12.38 22.656 1.583 11.581 15.936 6.059 23.315 5.933 12.135-.209 24.135 3.023 35.458 7.122-14.373 23.037-22.593 49.361-20.866 76.651-39.886-9.894-75.431-38.381-117.419-39.585zm90.814 162.145c-23.379-3.776-47.877-8.129-71.342-2.564 10.66-46.6-14.428-93.315-7.565-140.322 19.112 3.638 36.852 12.513 54.5 20.349 8.477 3.764 17.005 7.438 25.723 10.613 4.5 1.639 9.049 3.154 13.646 4.5 2.977.869 12.191 1.542 14.176 3.512 1.861 1.845 2.37 9.965 3.153 12.671 1.343 4.63 2.882 9.2 4.544 13.729 3.222 8.778 6.957 17.355 10.815 25.874 8.143 17.986 17.45 36.044 21.35 55.558-23.008 3.516-46.265-.25-69-3.918zm47.181 87.677c-.858-23.328-11.008-45.132-20.555-66 14.621 1.548 29.3 1.951 43.891-.146-.245 6.541-4.359 16 2.968 20.19 7.285 4.169 13.358-4.054 18.878-7.59 5.543 13.557 13.341 26.046 22.012 37.8-22.795 2.349-46.678 4.681-67.194 15.747zm200.919 23.044c-22.143 8.425-45.533 16.893-63.072 33.451-14.073-45.677-59.145-73.587-76.708-117.724 17.9-6.239 37.169-7.535 55.883-9.484 9.722-1.013 19.445-2.116 29.077-3.8 4.718-.827 9.414-1.783 14.07-2.919 4.091-1 11.829-4.522 15.082-2.893 3.413 1.714 7 7.305 9.809 9.922 3.347 3.125 6.811 6.121 10.347 9.027 7.237 5.948 14.8 11.479 22.416 16.924 15.581 11.136 32.067 21.9 44.8 36.393-18.168 14.546-40.185 22.918-61.704 31.105zm84.695 52.337c-12.409-19.761-32.087-33.562-50.782-46.854 13.373-5.956 26.351-12.973 37.892-22.042 3.05 5.782 4.289 15.984 12.691 15.953s9.543-10.185 12.557-16.013c11.578 8.97 24.578 15.885 37.966 21.735-18.573 13.422-38.092 27.381-50.324 47.223zm185.517-80.5c-14.958 18.367-30.981 37.4-37.895 60.506-35.021-32.526-88.013-34.161-125.288-63.6 12.331-14.3 28.3-25.033 43.478-36.033 7.532-5.457 15.021-10.98 22.2-16.9 3.512-2.9 6.951-5.887 10.282-8.99 2.985-2.783 7.3-9.19 10.823-10.994 3.319-1.7 9.5 1.435 13.578 2.434 4.677 1.149 9.4 2.1 14.147 2.928 9.7 1.682 19.493 2.761 29.29 3.719 19.152 1.87 38.907 2.92 57.272 9.138-8.46 21.688-23.346 39.943-37.887 57.796zm99.524 2.979c-20.627-10.901-44.576-13.02-67.411-15.181 8.6-11.844 16.334-24.412 21.8-38.036 5.534 3.479 11.695 11.7 18.964 7.473 7.29-4.237 3.13-13.606 2.826-20.17 14.578 1.99 29.22 1.486 43.8-.16-9.378 20.915-19.309 42.773-19.979 66.073zm120.412-162.46c-3.77 23.382-8.138 47.877-2.564 71.338-46.594-10.632-93.306 14.429-140.308 7.568 3.639-19.111 12.5-36.864 20.34-54.506 3.773-8.486 7.465-17.016 10.652-25.744 1.646-4.5 3.167-9.052 4.511-13.657.87-2.979 1.543-12.208 3.51-14.194 1.847-1.861 9.951-2.372 12.656-3.156 4.627-1.338 9.2-2.872 13.72-4.528 8.771-3.21 17.343-6.925 25.854-10.771 18-8.129 36.031-17.446 55.547-21.342 3.508 23.003-.251 46.259-3.918 68.992zm-101.453-47.857c1.552-27.3-6.835-53.566-21.373-76.5 11.313-4.194 23.241-7.471 35.4-7.419 7.535.034 21.556 5.488 23.257-6.116 1.069-7.307-9.4-16.112-12.56-22.582-4.471-9.16-7.012-19.174-8.793-29.168 27.215.923 53.961-4.992 76.808-20.2 4.867 16.894 6.664 34.462 8.446 51.892 2.406 23.568 4.531 48.357 15.986 69.586-41.992 1.539-77.331 30.348-117.171 40.507zm123.16 21.224c1.533-14.573 1.941-29.338-.149-43.878 6.546.245 15.979 4.353 20.172-2.974 4.169-7.284-4.06-13.367-7.6-18.9 13.555-5.543 26.048-13.335 37.809-22 2.338 22.8 4.67 46.68 15.738 67.2-23.319.862-45.114 11.004-65.97 20.552zm122.467-158.395c-45.679 14.073-73.584 59.143-117.718 76.711-6.239-17.9-7.536-37.174-9.486-55.889-1.015-9.726-2.115-19.453-3.8-29.091-.826-4.721-1.78-9.418-2.916-14.076-1-4.091-4.519-11.838-2.888-15.088 1.71-3.411 7.3-7 9.914-9.8 3.122-3.347 6.119-6.808 9.025-10.342 5.945-7.231 11.476-14.787 16.917-22.4 11.137-15.579 21.9-32.064 36.39-44.8 29.681 37.062 31.751 90.018 64.562 124.775zm-27.97-96.987c-5.954-13.375-12.974-26.351-22.04-37.89 5.779-3.051 15.984-4.289 15.952-12.693s-10.182-9.541-16.009-12.553c8.967-11.581 15.884-24.578 21.732-37.964 13.421 18.573 27.38 38.087 47.222 50.318-19.762 12.412-33.565 32.087-46.857 50.782z" fill="url(#b)" opacity=".85" transform="translate(-75.605 -74.316)"/></g><path d="m569.772 194.5c10.851 4.713 22.19 9.7 34.22 9.911-5.506 10.714-6.456 23.087-7.436 34.89a91.886 91.886 0 0 0 -19.767-11.023c1.764-2.877 5.968-6.11 3.744-9.834s-7.032-1.531-10.419-1.332a91.6 91.6 0 0 0 -.342-22.612zm3.217 42.1c22.941 8.644 37.8 31.617 61.524 38.406-16.577 18.277-17.1 45.642-32.076 65.062-7.456-6.279-13.092-14.459-18.863-22.228-2.86-3.851-5.757-7.681-8.858-11.347q-2.276-2.691-4.7-5.249c-1.454-1.522-4.787-3.706-5.74-5.515-.895-1.7.684-4.916 1.175-7.026.565-2.424 1.029-4.87 1.426-7.327.809-5.021 1.306-10.085 1.74-15.152.848-9.907 1.274-20.112 4.372-29.632zm-67.759 131.624a61.1 61.1 0 0 0 -7.421-10.617c-.729-.835-2.118-1.831-2.588-2.794-.909-1.856-1.52.209-.034-2.224 1.258-2.062 3.336-3.829 4.767-5.811a68.317 68.317 0 0 0 10.63-23.788c.508-2.062.778-4.168 1.151-6.253q25.258 15.539 50.241 31.515c-17.187 10.632-34.263 21.422-51.746 31.571a67.834 67.834 0 0 0 -5-11.599zm-52.666 110.429q2.456 28.583 4.45 57.2c-18.564-7.053-37-14.161-55.12-22.313 10.509-9.537 19.2-20.5 22.65-35.407a62.9 62.9 0 0 0 28.02.52zm-170.995 1.67c3.139 11.85 9.862 22.137 18.656 30.57.277.266.585.5.866.761-18.062 8.835-36.487 16.589-55.037 24.3q1.1-27.719 2.6-55.419c10.625 2.501 21.514 3.129 32.915-.213zm-37.076-309.283q26.182 14.913 52.142 30.206a3.649 3.649 0 0 0 .55.191c-9 8.813-16.315 18.937-19.4 32.256-12.546-3.254-25.127-1.939-37.206 1.776 1.373-21.469 2.993-42.934 3.914-64.429zm207.491-3.194c1.589 21.541 3.883 43.036 5.925 64.534-11.981-3.373-24.255-4.685-37.174-.9-3.191-12.074-10.1-22.511-19.118-31.036-.285-.268-.6-.505-.889-.772.023-.014.046-.011.069-.026q25.451-16.131 51.187-31.8zm13.584 66.937a3.627 3.627 0 0 0 .145-1.337c-2.272-24.064-5-48.111-6.589-72.233a3.886 3.886 0 0 0 -5.836-3.23q-28.388 17.287-56.473 35.082a3.578 3.578 0 0 0 -1.492 1.907c-2.233-1.8-4.525-3.538-6.849-5.223-2.039-1.479-4.106-2.922-6.175-4.359-1.419-.987-2.842-1.971-4.259-2.965-2.184-1.531-3.07-1.559-1.773-4.06 5.461-10.529 13.412-19.51 24.008-25.033 9.112-4.751 19.309-6.718 29.411-8.041 14.757-1.933 30.67-2.259 43.994-9.648.967 19.952 14.011 36.92 20.172 55.411 6.076 18.233 3.729 36.148-6.718 52.336-7.149-3.014-14.317-6.069-21.565-8.608zm-97.793-59.94a55.786 55.786 0 0 1 -11.376-11.8c-2.184-3.225-3.6-11.142-8.385-11.068-4.751.072-5.717 7.51-7.679 10.749a54.568 54.568 0 0 1 -11.357 12.737c-6.738-12.3-16.5-22.633-29.225-28.758 14.535-15.453 36.359-24.258 47.521-42.851 11.749 18.236 33.861 26.351 48.859 41.371-12.542 6.497-21.994 17.114-28.357 29.62zm-46.069 6.44c-6.652 5.055-13.38 10.077-19.577 15.517a3.585 3.585 0 0 0 -1.717-2.25q-28.613-16.921-57.526-33.328a3.886 3.886 0 0 0 -5.734 3.408c-.842 24.159-2.832 48.279-4.363 72.4a3.594 3.594 0 0 0 .156 1.1c-.416.165-.839.3-1.255.473-3.439 1.4-6.821 2.934-10.187 4.5-1.73.806-3.453 1.626-5.181 2.437q-1.511.712-3.025 1.415-1.857 1.756-2.509-.795c-2.809-2.395-4.8-8.177-6.192-11.534a54.926 54.926 0 0 1 -3.14-10.27c-6.178-31.044 19.935-54.945 20.454-84.846 17.842 9.178 39.145 6.3 58.316 10.29 18.528 3.862 32.712 14.648 41.482 31.482zm-129.695 206.3c-.159.6-.214 1.218-.359 1.821-17.452-10.964-34.435-22.621-51.552-34.104q25.043-14.7 50.3-29.033a73.622 73.622 0 0 0 5.981 16.095 61.214 61.214 0 0 0 7.12 10.72c.562.676 4.662 4.166 4.676 5.035.017 1.1-4.229 4.781-4.973 5.762a67.131 67.131 0 0 0 -11.191 23.705zm-3.341-69.136c-.077.037-.149.029-.225.074q-28.941 16.357-57.581 33.234c-2.635 1.551-2.227 5.087.1 6.638 19.479 12.971 38.649 26.356 58.509 38.751a3.382 3.382 0 0 0 .613.228q-1.146 7.178-1.773 14.422c-.157 1.8-.3 3.6-.454 5.4a16.063 16.063 0 0 1 -.3 3.445c-.858 2.119.031 1.73-2.441 1.844a67.464 67.464 0 0 1 -13.166-.621c-14.544-2.206-26.309-10.345-35.84-21.232-11.993-13.7-20.712-31.525-36.733-41.142 16.76-10.8 24.931-30.522 37.829-45.087 12.611-14.239 29.076-21.262 48.146-20.457 1.046 8.156 1.84 16.417 3.318 24.505zm52.4 159.987q-1.747 31.7-2.973 63.433c-.088 2.3 2.658 4.573 4.922 3.63 21.715-9.024 43.309-17.935 64.391-28.381 1.939 1.552 3.907 3.073 5.914 4.537 2.038 1.486 4.1 2.937 6.175 4.377 1.317.918 2.638 1.83 3.952 2.749 2.287 1.6 3.826 1.72 2.367 4.491-5.466 10.39-13.4 19.251-23.9 24.689-9.064 4.694-19.182 6.654-29.214 7.974-14.784 1.945-30.731 2.255-44.085 9.66-.967-19.83-13.869-36.73-20.061-55.085-6.119-18.14-3.984-36.025 6.338-52.232 8.668 3.643 17.35 7.384 26.172 10.16zm93.26 58.35a56.48 56.48 0 0 1 11.525 11.909c2.2 3.233 3.646 11.223 8.442 11.148 4.759-.072 5.739-7.565 7.716-10.811a55.2 55.2 0 0 1 11.533-12.83c6.726 12.124 16.42 22.291 28.994 28.343-14.535 15.457-36.358 24.257-47.517 42.848-11.749-18.233-33.855-26.348-48.852-41.365 12.407-6.432 21.801-16.899 28.157-29.24zm46.5-6.393c4.919-3.726 9.873-7.444 14.627-11.323 21.284 9.722 43.025 17.926 64.89 26.234 2.292.872 4.967-1.48 4.809-3.781q-2.223-32.351-5.027-64.657a110.4 110.4 0 0 0 12.426-4.419c3.61-1.526 7.162-3.185 10.707-4.855 1.479-.7 2.956-1.4 4.437-2.09 3.207-1.5 3.153-1.551 5.035 1.5a59.834 59.834 0 0 1 8.4 21.506c5.043 30.371-20.233 53.876-20.742 83.219-17.748-9.124-38.931-6.33-58.008-10.227-18.467-3.772-32.722-14.381-41.559-31.106zm131.521-142.87c19.935-11.491 39.27-23.922 58.875-35.96a3.891 3.891 0 0 0 -.1-6.638q-28-17.916-56.319-35.33a3.585 3.585 0 0 0 -1.808-.538q.619-5.09 1.063-10.2c.156-1.827.3-3.652.462-5.475a13.774 13.774 0 0 1 .276-3.01c.793-1.887.154-1.525 2.423-1.626a67.221 67.221 0 0 1 13.153.624c14.536 2.21 26.294 10.356 35.819 21.236 11.992 13.7 20.711 31.523 36.729 41.138-16.766 10.8-24.939 30.536-37.844 45.106-12.631 14.261-29.13 21.264-48.228 20.435-1.264-9.932-2.219-20.031-4.501-29.762zm54.9-161.141c-9.916 19.291-5.893 42.5-11.4 62.994-11.878-7.593-25.77-10.475-39.754-9.746a54.257 54.257 0 0 1 4.622-15.524c1.711-3.418 7.2-7.846 5.468-11.912-2.048-4.81-9.069-1.777-12.953-1.807-5.961-.045-11.841-1.625-17.426-3.595 7.442-12.087 11.652-25.88 10.583-40.139 20.656 4.868 39.178 19.349 60.86 19.73zm-47.858-83.159c12.094 1.81 24.769 3.915 36.849.9-5.22 24.121 8.011 48.088 4.748 72.4-9.888-1.765-19.1-6.239-28.258-10.182-4.4-1.9-8.825-3.75-13.346-5.344-2.335-.822-4.69-1.582-7.073-2.249-1.542-.431-6.305-.725-7.342-1.73-.972-.943-1.283-5.124-1.705-6.517-.719-2.38-1.542-4.728-2.424-7.051-1.716-4.508-3.692-8.908-5.731-13.278-4.311-9.237-9.226-18.5-11.356-28.546 11.854-1.957 23.88-.157 35.637 1.597zm-24.88-44.978c.584 12.032 5.95 23.223 11 33.932a91.838 91.838 0 0 0 -22.653.34c.089-3.379 2.153-8.271-1.653-10.392-3.781-2.109-6.869 2.17-9.7 4.032a91.649 91.649 0 0 0 -11.591-19.383c11.757-1.345 24.072-2.692 34.596-8.529zm-103.857-10.689c11.379-4.482 23.4-8.993 32.356-17.646 7.539 23.5 30.973 37.631 40.308 60.309-9.2 3.33-19.145 4.114-28.792 5.234-5.013.582-10.025 1.212-14.986 2.141-2.43.453-4.849.976-7.244 1.591-2.105.541-6.078 2.406-7.767 1.583-1.771-.864-3.66-3.73-5.124-5.064-1.748-1.593-3.553-3.12-5.4-4.6-3.772-3.026-7.709-5.837-11.676-8.6-8.111-5.654-16.685-11.108-23.345-18.515 9.292-7.621 20.614-12.074 31.67-16.433zm-44.04-26.511c6.524 10.13 16.765 17.138 26.5 23.885a91.934 91.934 0 0 0 -19.429 11.607c-1.608-2.965-2.31-8.228-6.647-8.16s-4.864 5.315-6.383 8.342a91.639 91.639 0 0 0 -19.731-10.991c9.505-7.042 19.495-14.365 25.69-24.683zm-95.286 42.672c7.613-9.571 15.77-19.49 19.2-31.46 18.277 16.576 45.642 17.1 65.062 32.074-6.279 7.456-14.461 13.095-22.23 18.864-3.855 2.863-7.689 5.76-11.359 8.861-1.8 1.517-3.553 3.08-5.255 4.7-1.523 1.454-3.712 4.79-5.522 5.742-1.7.9-4.912-.684-7.023-1.175-2.421-.565-4.864-1.03-7.319-1.428-5.018-.812-10.077-1.311-15.138-1.745-9.9-.852-20.106-1.277-29.624-4.376 4.233-11.239 11.808-20.752 19.208-30.057zm-51.4-.94c10.714 5.508 23.089 6.458 34.89 7.438a91.858 91.858 0 0 0 -11.02 19.764c-2.877-1.762-6.111-5.965-9.834-3.741s-1.537 7.031-1.34 10.418a91.678 91.678 0 0 0 -22.6.343c4.712-10.85 9.702-22.191 9.908-34.221zm-61.184 84.6c1.807-12.094 3.914-24.765.893-36.844 24.124 5.2 48.08-8.009 72.387-4.753-1.762 9.888-6.227 19.1-10.17 28.259-1.9 4.4-3.747 8.821-5.338 13.34-.821 2.333-1.579 4.688-2.246 7.071-.43 1.54-.721 6.3-1.725 7.337-.943.973-5.126 1.288-6.518 1.708-2.381.722-4.731 1.545-7.056 2.429-4.51 1.717-8.913 3.7-13.283 5.737-9.238 4.313-18.5 9.223-28.552 11.351-1.946-11.854-.144-23.88 1.612-35.636zm52.665 24.095c-.644 14.305 3.986 27.981 11.812 39.849a54.553 54.553 0 0 1 -17.316 4.117c-3.943.162-10.915-2.672-12.9 2.2-1.654 4.055 4.037 8.409 5.823 11.725a54.16 54.16 0 0 1 5.084 15.371c-13.976-.3-27.77 3-39.4 10.935-2.617-8.7-3.65-17.763-4.676-26.756-1.386-12.152-2.632-24.936-8.671-35.825 21.67-1.05 39.742-16.134 60.248-21.617zm-63.71-10.216a91.788 91.788 0 0 0 .34 22.647c-3.379-.086-8.274-2.145-10.393 1.659-2.107 3.786 2.173 6.872 4.032 9.7a91.723 91.723 0 0 0 -19.38 11.59c-1.345-11.753-2.692-24.07-8.53-34.593 12.036-.585 23.23-5.951 33.936-11.004zm-62.27 82.5c23.5-7.538 37.635-30.972 60.314-40.3 3.328 9.2 4.114 19.141 5.232 28.789.582 5.016 1.208 10.033 2.133 15 .454 2.434.976 4.853 1.589 7.251.541 2.105 2.406 6.085 1.583 7.773-.863 1.77-3.727 3.655-5.061 5.118-1.593 1.745-3.117 3.549-4.6 5.391-3.026 3.767-5.837 7.7-8.6 11.661-5.656 8.111-11.109 16.685-18.516 23.345-15.535-18.956-16.922-46.282-34.069-64.025zm-8.861 76.4c10.128-6.526 17.135-16.768 23.885-26.5a91.928 91.928 0 0 0 11.605 19.43c-2.965 1.609-8.226 2.31-8.16 6.649s5.314 4.864 8.342 6.384a91.654 91.654 0 0 0 -10.992 19.728c-7.035-9.505-14.359-19.497-24.675-25.691zm75.953 156.591c-10.851-4.713-22.189-9.7-34.22-9.91 5.509-10.715 6.455-23.092 7.434-34.894a91.879 91.879 0 0 0 19.771 11.022c-1.765 2.879-5.97 6.113-3.746 9.839s7.028 1.534 10.416 1.334a91.729 91.729 0 0 0 .35 22.609zm-3.221-42.093c-22.94-8.645-37.8-31.62-61.524-38.411 16.584-18.278 17.11-45.641 32.082-65.061 7.455 6.279 13.092 14.459 18.863 22.228 2.862 3.852 5.756 7.684 8.855 11.351 1.517 1.794 3.08 3.552 4.7 5.252 1.454 1.523 4.785 3.709 5.737 5.518.9 1.7-.682 4.916-1.174 7.026-.564 2.423-1.027 4.869-1.423 7.324-.809 5.021-1.306 10.084-1.74 15.148-.847 9.899-1.272 20.104-4.371 29.624zm5.737 10.208c9.919-19.282 5.9-42.484 11.4-62.972 11.936 7.638 25.8 10.439 39.842 9.7a56.952 56.952 0 0 1 -4.236 15.151c-1.58 3.41-6.818 7.966-6.255 11.77.887 5.97 8.263 3.033 12.072 2.923 6.264-.182 12.479 1.415 18.348 3.462-7.282 11.98-11.367 25.618-10.312 39.7-20.65-4.873-39.169-19.365-60.853-19.734zm47.861 83.159c-12.092-1.81-24.765-3.909-36.843-.895 5.221-24.121-8.011-48.086-4.75-72.394 9.888 1.762 19.1 6.236 28.256 10.176 4.4 1.893 8.822 3.738 13.343 5.324 2.333.819 4.69 1.574 7.071 2.239 1.542.43 6.3.722 7.339 1.727.972.943 1.283 5.13 1.7 6.523.722 2.383 1.543 4.735 2.429 7.06 1.716 4.513 3.7 8.918 5.739 13.292 4.311 9.237 9.224 18.5 11.356 28.552-11.851 1.954-23.881.152-35.64-1.604zm24.886 44.981c-.584-12.037-5.954-23.232-11.009-33.946a91.2 91.2 0 0 0 22.658-.34c-.088 3.379-2.155 8.286 1.653 10.406 3.786 2.108 6.872-2.173 9.7-4.031a91.651 91.651 0 0 0 11.591 19.383c-11.755 1.342-24.069 2.688-34.593 8.528zm103.858 10.689c-11.379 4.482-23.4 8.995-32.358 17.647-7.541-23.5-30.975-37.633-40.307-60.312 9.2-3.328 19.141-4.112 28.791-5.232 5.013-.581 10.027-1.209 14.988-2.136 2.43-.456 4.85-.978 7.247-1.591 2.105-.541 6.079-2.406 7.767-1.583 1.773.864 3.658 3.729 5.124 5.063 1.747 1.593 3.552 3.117 5.4 4.6 3.772 3.028 7.707 5.837 11.675 8.6 8.109 5.654 16.685 11.111 23.345 18.518-9.296 7.612-20.616 12.064-31.672 16.422zm44.039 26.508c-6.526-10.125-16.766-17.133-26.5-23.882a91.981 91.981 0 0 0 19.428-11.605c1.609 2.965 2.31 8.225 6.647 8.158s4.865-5.317 6.386-8.343a91.61 91.61 0 0 0 19.731 10.992c-9.507 7.036-19.498 14.36-25.692 24.676zm95.285-42.672c-7.612 9.572-15.768 19.494-19.2 31.464-18.274-16.58-45.64-17.105-65.061-32.078 6.279-7.455 14.461-13.092 22.228-18.863 3.855-2.862 7.689-5.759 11.359-8.858 1.794-1.517 3.552-3.08 5.254-4.7 1.523-1.454 3.71-4.787 5.52-5.74 1.7-.895 4.913.684 7.025 1.175 2.421.565 4.867 1.03 7.32 1.426 5.019.81 10.079 1.309 15.143 1.743 9.9.85 20.1 1.274 29.621 4.374-4.235 11.232-11.81 20.75-19.209 30.052zm51.4.941c-10.715-5.508-23.091-6.457-34.891-7.435a91.911 91.911 0 0 0 11.022-19.767c2.879 1.764 6.108 5.97 9.836 3.744s1.534-7.042 1.338-10.43a91.058 91.058 0 0 0 22.61-.346c-4.719 10.849-9.714 22.193-9.919 34.229zm61.182-84.595c-1.805 12.094-3.914 24.765-.895 36.843-24.116-5.207-48.08 8.01-72.386 4.751 1.764-9.886 6.229-19.106 10.171-28.259 1.9-4.4 3.752-8.83 5.344-13.355.822-2.335 1.582-4.691 2.247-7.077.431-1.542.724-6.312 1.727-7.348.943-.972 5.123-1.284 6.515-1.7 2.38-.719 4.73-1.539 7.054-2.42 4.51-1.711 8.911-3.68 13.283-5.717 9.241-4.3 18.5-9.223 28.547-11.351 1.949 11.843.143 23.872-1.611 35.628zm-52.661-24.095c.638-14.1-3.85-27.611-11.493-39.366 5.814-2.233 11.952-4 18.227-4.041 3.891-.028 11.162 2.7 11.969-3.3.508-3.778-4.95-8.262-6.62-11.582a57.007 57.007 0 0 1 -4.714-15c14.056.313 27.827-2.9 39.53-10.892 2.614 8.693 3.647 17.751 4.671 26.738 1.385 12.152 2.631 24.937 8.671 35.826-21.667 1.041-39.738 16.13-60.244 21.613zm63.707 10.216a91.811 91.811 0 0 0 -.34-22.65c3.379.086 8.275 2.15 10.395-1.657 2.109-3.784-2.176-6.875-4.037-9.708a91.821 91.821 0 0 0 19.386-11.589c1.345 11.755 2.691 24.07 8.528 34.6-12.035.579-23.228 5.947-33.935 11zm62.268-82.5c-23.5 7.539-37.631 30.975-60.308 40.308-3.33-9.2-4.114-19.145-5.234-28.794-.582-5.015-1.209-10.03-2.135-15-.454-2.432-.977-4.852-1.589-7.248-.539-2.107-2.4-6.085-1.582-7.773.861-1.77 3.726-3.656 5.06-5.121 1.591-1.747 3.117-3.55 4.6-5.392 3.026-3.769 5.836-7.7 8.6-11.665 5.656-8.109 11.111-16.683 18.516-23.345 15.536 18.952 16.922 46.275 34.069 64.021zm-15.021-49.9a91.845 91.845 0 0 0 -11.607-19.428c2.966-1.609 8.226-2.312 8.16-6.649s-5.315-4.864-8.34-6.384a91.712 91.712 0 0 0 10.991-19.728c7.04 9.508 14.362 19.5 24.68 25.692-10.132 6.517-17.138 16.758-23.888 26.489z" fill="#209393" opacity=".2" transform="translate(30.561 32.975)"/></svg>