<svg height="68.018" viewBox="0 0 60.694 68.018" width="60.694" xmlns="http://www.w3.org/2000/svg"><g fill="#272727" transform="translate(-5.986 -557.375)"><circle cx="52.791" cy="560.456" r="3.081"/><path d="m66.36 592.284a20.572 20.572 0 0 0 -4-9.091 14.688 14.688 0 0 0 -7.715-5.3 45.071 45.071 0 0 1 .8-6.73 1.953 1.953 0 0 1 2.011-1.546c2.235.1 4.482.235 6.755.432l-2.266-5.631c-4.326.4-8.752.56-13.184.7-4.442.116-8.937.1-13.452.035-9.009-.075-18.072-.288-27.28-.86l2.365 5.877c8.747-.572 17.64-.785 26.587-.86 4.509-.067 9.039-.081 13.622.038a.71.71 0 0 1 .69.707v7.493a16.653 16.653 0 0 0 -8.258 2.017 15.2 15.2 0 0 0 -5.442 5.011 17.692 17.692 0 0 0 -4.8-4 13.994 13.994 0 0 0 -9.614-1.482 21.308 21.308 0 0 0 -8.535 4.057 22 22 0 0 0 -6.325 7.267 20.551 20.551 0 0 0 -2.328 9.732 29.111 29.111 0 0 0 1.7 9.477 41.726 41.726 0 0 0 4.036 8.347 40.168 40.168 0 0 0 5.861 7.416c1.25-2.854 4.154-5.72 7.566-8.589a32.355 32.355 0 0 1 -8.666-10.741c-2.039-4.145-2.823-8.568-1.337-12.455a14.864 14.864 0 0 1 3.7-5.421 15.461 15.461 0 0 1 5.666-3.668 8.823 8.823 0 0 1 6.256.205 14.354 14.354 0 0 1 5.553 4.218l1.976 2.439a17.784 17.784 0 0 1 1.137-2.532c1.425-1.975 3.971-3.222 6.157-4.06a16.337 16.337 0 0 1 6.988-1.112 8.411 8.411 0 0 1 5.537 3.056 16.72 16.72 0 0 1 3.562 6.578 15.294 15.294 0 0 1 .186 7.575c-.553 2.535-2.086 4.623-3.9 7.034l-5.274 7.036a25.53 25.53 0 0 0 -2.4 3.8 12.767 12.767 0 0 0 -1.174 4.3 16.234 16.234 0 0 1 4.719-7.123c2.067-2.046 4.23-4.066 6.253-6.218 1.034-1.1 2-2.053 3.076-3.363a16.333 16.333 0 0 0 2.392-4.291 18.352 18.352 0 0 0 .799-9.774z"/></g></svg>