<svg xmlns="http://www.w3.org/2000/svg" width="147.085" height="180.08" viewBox="0 0 147.085 180.08">
  <g id="Grupo_257" data-name="Grupo 257" transform="translate(-123.305 -119.22)">
    <path id="Trazado_1905" data-name="Trazado 1905" d="M-75.636-17.933a6.773,6.773,0,0,0-3.582,3.463,10.92,10.92,0,0,0-.995,4.458A9.035,9.035,0,0,0-72.054-.9c.438.04.836.08,1.274.08,6.607,0,11.5-6.01,11.621-11.741.119-5.254-1.473-7.442-4.657-11.223-3.224-3.821-8.278-7.442-8.358-12.457l-.4-.119A8.209,8.209,0,0,0-73.924-31.5a10.251,10.251,0,0,0,.756,3.861c2.308,5.652,11.621,10.069,11.621,16.159C-61.9-7.307-66.124-5.2-69.825-4.958l.716-.716V-19.764l-3.463-4.179V-5.157c-3.343-.637-5.572-2.786-5.572-6.209a9.056,9.056,0,0,1,.318-2.428,8.421,8.421,0,0,1,2.507-3.781Zm21.929-4.776-3.582,2.388v8.676c0,3.7.995,6.248,3.582,7.442l4.657-3.94-.677-.955-2.03,1.552c-1.473.119-1.95-1.831-1.95-4.537Zm-3.9-3.821,2.269,2.269,6.77-5.806-2.348-2.308Zm16.159.557c-.279,4.219-9.791,5.373-9.791,13.134v1.791a7.221,7.221,0,0,0,3.9,6.845l3.582-3.264A5.809,5.809,0,0,0-40.732-4.2l4.657-3.94-.637-.955-2.03,1.552c-1.433.119-1.91-1.592-1.99-4.1v-7.522h-1.91a5.868,5.868,0,0,0,1.552-1.751,6.764,6.764,0,0,0,.637-2.945,3.743,3.743,0,0,0-.557-2.229Zm-2.985,14.328A14.7,14.7,0,0,0-44.194-8.9l-1.433,1.114c-1.234-.04-1.831-1.234-1.95-3.264v-1.91c0-2.388,1.552-3.741,3.144-4.9Zm16.039-11.422c-1.672,2.348-8.4,2.746-9.432,2.945l-.6,3.98c1.512,1.552,6.049,5.691,6.646,7.522.358,1.114,0,1.871-.8,1.871a2.525,2.525,0,0,1-1.433-.557,4.53,4.53,0,0,1-1.831-2.507l-2.945,2.388a5.982,5.982,0,0,0,4.3,3.582c1.99-.04,4.856-2.189,5.691-4.816.517-3.1-4.3-7.124-5.691-8.437,2.03-.159,4.856-.756,5.97-2.905a7.246,7.246,0,0,0,.478-2.945ZM-33.767-27.6l-2.308,2.348,2.308,2.269,2.269-2.269ZM-13.031-4.2-8.3-8.142-8.972-9.1-11-7.545c-1.473.119-2.07-1.831-2.07-4.537V-33.614l-3.542,2.388v10.348l-2.229-1.831c-3.1,1.075-4.338,3.184-4.338,8.079v2.985c0,3.7,1.075,6.248,3.622,7.442l3.7-3.144A5.509,5.509,0,0,0-13.031-4.2Zm-3.264-4.577-1.274.995c-1.552-.119-1.99-1.592-1.99-4.3v-2.866c0-2.388.677-4.219,2.229-4.458l.716.438v7.323A11.508,11.508,0,0,0-16.295-8.779Zm-5.731-17.75,2.269,2.269,2.308-2.269-2.308-2.308ZM.5-8.262-1.927-6.511c-.716-.239-4.5-.557-4.5-3.781v-.637l3.184.159C-.693-12-.017-14.709-.1-16.978a5.929,5.929,0,0,0-4.3-5.771l-5.652,5.055v7.482c0,4.9,4.3,6.01,7.044,6.567L1.177-7.466Zm-6.925-4.06v-6.726l.358-.318a3.79,3.79,0,0,1,2.229,3.184c.159,1.95-.6,3.741-1.99,3.861ZM-8.852-26.53l2.269,2.269,2.348-2.269-2.348-2.308Zm4.657,0,2.269,2.269L.421-26.53l-2.348-2.308Zm6.129-4.7v19.581c0,3.7.995,6.248,3.582,7.442l4.7-3.94L9.575-9.1,7.545-7.545c-1.512.119-2.109-1.831-2.109-4.537V-33.614Zm20.218,5.254c-.279,4.219-9.791,5.373-9.791,13.134v1.791a7.221,7.221,0,0,0,3.9,6.845l3.582-3.264A5.809,5.809,0,0,0,22.868-4.2l4.657-3.94L26.887-9.1l-2.03,1.552c-1.433.119-1.91-1.592-1.99-4.1v-7.522h-1.91a5.868,5.868,0,0,0,1.552-1.751,6.764,6.764,0,0,0,.637-2.945,3.743,3.743,0,0,0-.557-2.229ZM19.166-11.645A14.7,14.7,0,0,0,19.405-8.9L17.972-7.784c-1.234-.04-1.831-1.234-1.95-3.264v-1.91c0-2.388,1.552-3.741,3.144-4.9Zm6.567-19.581v19.581c0,3.7.995,6.248,3.582,7.442l4.7-3.94L33.375-9.1l-2.03,1.552c-1.512.119-2.109-1.831-2.109-4.537V-33.614ZM32.3-17.694V-4.2h3.622V-19.047l.358-.318c1.99.8,2.507,2.985,2.507,5.612v6.328l3.582,2.945v-9.552a16.829,16.829,0,0,0-.557-4.537l.915-.8c1.99.8,2.507,2.985,2.507,5.612V-2.809L48.817.1V-14.033c0-4.776-1.313-7.721-4.418-8.716l-3.144,2.826a5.528,5.528,0,0,0-3.3-2.826ZM60-25.972c-.279,4.219-9.791,5.373-9.791,13.134v1.791A7.221,7.221,0,0,0,54.11-4.2l3.582-3.264A5.809,5.809,0,0,0,60.717-4.2l4.657-3.94L64.737-9.1l-2.03,1.552c-1.433.119-1.91-1.592-1.99-4.1v-7.522h-1.91a5.868,5.868,0,0,0,1.552-1.751A6.764,6.764,0,0,0,61-23.863a3.743,3.743,0,0,0-.557-2.229ZM57.016-11.645A14.7,14.7,0,0,0,57.254-8.9L55.822-7.784c-1.234-.04-1.831-1.234-1.95-3.264v-1.91c0-2.388,1.552-3.741,3.144-4.9Z" transform="translate(205.017 299.204)" fill="#209393"/>
    <g id="Grupo_246" data-name="Grupo 246" transform="translate(123.305 119)">
      <g id="Grupo_217" data-name="Grupo 217" transform="translate(0 0)">
        <path id="Trazado_1016" data-name="Trazado 1016" d="M218.689,207.266a3.638,3.638,0,0,0-2.524.4,20.672,20.672,0,0,1-3.148.867c-.645.126-1.293.211-1.943.294a.138.138,0,0,0,.065-.087q.31-1.182.577-2.374a6.44,6.44,0,0,0,.253-2.263,5.3,5.3,0,0,0-.754-1.877c-.412-.716-.848-1.418-1.3-2.107-.228-.347-.46-.692-.7-1.031a3.867,3.867,0,0,0-.242-.325.123.123,0,0,0,.058-.162,1.086,1.086,0,0,0-1.472-.491,4.808,4.808,0,0,0-1.64,1.619,17.745,17.745,0,0,1-3.31,3.714.165.165,0,0,0-.043.046c-2.057.066-3.411,1.777-4.981,2.894-.156.111-.317.215-.478.319a.146.146,0,0,0-.052-.04,22.215,22.215,0,0,1-7.644-6.765c-1.056-1.349-2.056-2.742-3.111-4.091a58.242,58.242,0,0,0-3.934-4.48c-1.185-1.231-2.415-2.416-3.66-3.586a.155.155,0,0,0,.014-.155c-1.464-3.233-1.641-6.888-1.683-10.384q-.069-5.743-.226-11.48c-.066-2.28-.12-5.494-.127-7.775-.3-2.586-1.355-5.359-3.73-6.71a10.019,10.019,0,0,0-4.54-.986,12.773,12.773,0,0,1-5.269-1.045,22.948,22.948,0,0,1-4.651-3.622l-.2-.323a9.86,9.86,0,0,1-1.426-3.159,14.2,14.2,0,0,1-.175-3.538,17.207,17.207,0,0,0,1.982-2.537,14.445,14.445,0,0,0,1.9-4.524.146.146,0,0,0,.12-.04,13.461,13.461,0,0,0,1.791-2,7.052,7.052,0,0,0,1.261-2.361,1.872,1.872,0,0,0-.508-1.934,1.512,1.512,0,0,0-1.388-.351,53.153,53.153,0,0,0,1.675-5.064,8.991,8.991,0,0,0,.21-4.026,7.692,7.692,0,0,0-1.105-2.656c-.022-.075-.04-.15-.063-.224a.4.4,0,0,0-.288-.274,8.368,8.368,0,0,0-2.539-2.213,3.72,3.72,0,0,0,.232-1.483,6.633,6.633,0,0,0-.358-4.048,3.847,3.847,0,0,0-.883-1.33,6.439,6.439,0,0,0-1.234-.857,7.192,7.192,0,0,0-3.229-1.54c-.225-.074-.452-.144-.683-.2a7.9,7.9,0,0,0-3.056-.185,8.372,8.372,0,0,0-4.68,1.155,5.1,5.1,0,0,0-1.369,1.32A6.506,6.506,0,0,0,143.4,104.3a4.147,4.147,0,0,0,.064,5.247l.017.03a9.063,9.063,0,0,0-3.989,3.875,9.963,9.963,0,0,0-.766,7.091,12.985,12.985,0,0,0,1.417,3.444l-.005.265a1.02,1.02,0,0,0,.075.383,1.13,1.13,0,0,0-.883.187c-.735.585-.624,1.77-.455,2.585a6.075,6.075,0,0,0,2.488,3.691,15.98,15.98,0,0,0,2.526,5.7c.2.279.4.56.62.84a12.73,12.73,0,0,1,.137,4.189,8.707,8.707,0,0,1-2.172,3.725.148.148,0,0,0-.02.035,18.54,18.54,0,0,1-3.561,3.651,6.15,6.15,0,0,1-2.681,1.024c-1.144.145-2.3-.028-3.444.061-3.5.271-6.275,3-7.415,6.189-.746,2.089-.885,6.047-.777,8.336a.147.147,0,0,0-.007.051q.267,4.329.23,8.669a71.743,71.743,0,0,1-.423,8.452,15.15,15.15,0,0,1-2.5,6.669,54.253,54.253,0,0,1-4.158,5.1,27.3,27.3,0,0,0-4.15,5.83c-1.1,1.2-2.683,2.933-3.859,4.035q-.914.857-1.862,1.677a7.67,7.67,0,0,1-2.124,1.578c-1.642.6-3.112-.762-4.251-1.736a11.5,11.5,0,0,0-3.637-2.121c-.462-.8-.913-1.613-1.391-2.405a6.142,6.142,0,0,0-1.549-1.837,2.852,2.852,0,0,0-2.022-.63c-.713.123-.646.948-.479,1.542-.107.255-.147.539-.228.8a6.789,6.789,0,0,1-.442,1.054,10.672,10.672,0,0,0-1.46,3.364,6.929,6.929,0,0,0,.259,2.237q.248,1.207.5,2.414a6.717,6.717,0,0,0-3.3-.287.134.134,0,0,0-.056-.2,34.1,34.1,0,0,0-3.3-1.454q-.867-.328-1.751-.608a3.287,3.287,0,0,0-1.5-.263.97.97,0,0,0-.813.7.834.834,0,0,0,.482.844,16.313,16.313,0,0,0,1.495.686q.8.382,1.58.816a26.731,26.731,0,0,1,3.164,2.078c-.625.046-1.251.137-1.844.209a3.022,3.022,0,0,0-1.445.462c-.293.214-.574.6-.331.954.258.375.958.455,1.359.537a15.346,15.346,0,0,0,1.869.24c1.563.125,3.127.233,4.691.347.029.181.166.306.425.323a15.481,15.481,0,0,0,2.347-.129c.511-.047,1.021-.111,1.529-.182A7.738,7.738,0,0,0,91.767,224.7a10.416,10.416,0,0,0,4.192,4.741,16.233,16.233,0,0,0,3.5,1.515,25.865,25.865,0,0,0,4.116,1.112,38.9,38.9,0,0,0,4.713.223c1.659.043,3.939-.063,5.617-.025a.134.134,0,0,0,.027.006,63.261,63.261,0,0,0,15.5-2.206,74.618,74.618,0,0,0,7.6-2.064c1.236-.443,2.457-.917,3.683-1.38a.154.154,0,0,0,.12.082l23.477,2.753,23.594,2.767a103.221,103.221,0,0,0,13.234,1.095.113.113,0,0,0,.014,0,.142.142,0,0,0,.08,0,18.814,18.814,0,0,0,4.38-2.4c1.3-.9,2.623-1.769,3.878-2.729a6.384,6.384,0,0,0,2.516-2.819,8.178,8.178,0,0,0,.247-2.086c.037-.859-.055-2.7-.086-3.559a.105.105,0,0,1-.007-.053,5.948,5.948,0,0,0-2.022-3.262,28.59,28.59,0,0,0-2.806-2.148,13.22,13.22,0,0,1,3.335-.2c.544.051,1.086.13,1.632.156.335.015.915.107,1.191-.14.544-.486-.419-1.314-.79-1.549a4.258,4.258,0,0,0-1.212-.5,39.447,39.447,0,0,0,5.843-2.276q.763-.371,1.51-.776c.21-.114.52-.224.637-.449C219.769,207.983,219.124,207.432,218.689,207.266ZM95.531,206.074a5.528,5.528,0,0,0-.255.938,11.607,11.607,0,0,0-.145,1.47,4.447,4.447,0,0,1-1.861-2.665,4.248,4.248,0,0,1,.741-3.393l.949,1.229c.344.446.847.963.817,1.57A2.953,2.953,0,0,1,95.531,206.074ZM138.375,192.1c-.243,2.229-1.437,4.014-2.685,5.805a12.572,12.572,0,0,0-2.455,5.331,14.31,14.31,0,0,1-.837,3.819,16.181,16.181,0,0,1-2.162,3.259l0,0a4.929,4.929,0,0,0-3.156-.523,6.041,6.041,0,0,0-.709.153,1.1,1.1,0,0,0-.478.212.458.458,0,0,0-.035.052c-2.225-.348-4.593.093-6.814.285-2.428.21-5.511.671-7.939.881-.24,0-.478,0-.717.007,3.741-4.122,8.576-6.978,13-10.28a38.665,38.665,0,0,0,5.91-5.245,14.324,14.324,0,0,0,2.448-3.453,10.541,10.541,0,0,0,.624-4.35,18.258,18.258,0,0,1,.818-5.309,21.092,21.092,0,0,0,1.083-4.838.143.143,0,0,0,.065-.085,8.614,8.614,0,0,0,.241-1.112q.18.92.36,1.839a.129.129,0,0,0,.067.1C136.114,183.1,138.891,187.35,138.375,192.1Zm50.563,18.039q-2.37-.15-4.747-.146a19.492,19.492,0,0,1-4.782-.374,1.109,1.109,0,0,0-.064-.527,2.93,2.93,0,0,0-1.54-1.685,5.53,5.53,0,0,0-2.73-.176c-1.194.017-2.265-.637-3.429-.807a4.464,4.464,0,0,0-.651-.043c-.03-3.745-2.63-6.658-4.381-9.766-.548-.973-1.056-1.969-1.556-2.967a6.466,6.466,0,0,1-.991-3.443,17.254,17.254,0,0,1,.833-3.4l.964-3.313a17.279,17.279,0,0,0,1.031-6.82c.09-.141.176-.283.257-.43a26.072,26.072,0,0,1,1.5,5.421c.323,2.008.263,4.032.466,6.049a16.224,16.224,0,0,0,3.335,8.27,17.177,17.177,0,0,0,3.765,3.57h0c.293.212,2.093,1.443,2.385,1.655,0,0,.009,0,.013,0q3.092,2.434,6.349,4.643,1.666,1.126,3.373,2.191a21.188,21.188,0,0,1,3.306,2.318C190.744,210.271,189.842,210.192,188.938,210.135Zm19.657-4.322a5.725,5.725,0,0,1-1.431,2.052,15.631,15.631,0,0,1-1.712-1.958.142.142,0,0,0,.059-.08,10.3,10.3,0,0,1,2.463-3.984c.147.425.3.849.443,1.273A3.894,3.894,0,0,1,208.595,205.813Z" transform="translate(-80.289 -93.644)" fill="#209393"/>
        <g id="Grupo_206" data-name="Grupo 206" transform="translate(66.946 0)">
          <circle id="Elipse_296" data-name="Elipse 296" cx="3.5" cy="3.5" r="3.5" transform="translate(0.138 0.22)" fill="#e02197"/>
          <circle id="Elipse_296-2" data-name="Elipse 296" cx="3.5" cy="3.5" r="3.5" transform="translate(0.138 25.22)" fill="#0063a2"/>
          <circle id="Elipse_296-3" data-name="Elipse 296" cx="3.5" cy="3.5" r="3.5" transform="translate(0.138 48.22)" fill="#16e3cb"/>
          <circle id="Elipse_296-4" data-name="Elipse 296" cx="3.5" cy="3.5" r="3.5" transform="translate(0.138 66.22)" fill="#71db16"/>
          <circle id="Elipse_296-5" data-name="Elipse 296" cx="3.5" cy="3.5" r="3.5" transform="translate(0.138 85.22)" fill="#e8c50d"/>
          <circle id="Elipse_296-6" data-name="Elipse 296" cx="3.5" cy="3.5" r="3.5" transform="translate(0.138 104.22)" fill="#ff701e"/>
          <circle id="Elipse_296-7" data-name="Elipse 296" cx="3.5" cy="3.5" r="3.5" transform="translate(0.138 124.22)" fill="#ec1927"/>
        </g>
      </g>
    </g>
  </g>
</svg>
